<?xml version="1.0" encoding="utf-8"?>
<!-- Generator: Adobe Illustrator 25.2.1, SVG Export Plug-In . SVG Version: 6.00 Build 0)  -->
<svg version="1.1" id="Camada_1" xmlns="http://www.w3.org/2000/svg" xmlns:xlink="http://www.w3.org/1999/xlink" x="0px" y="0px"
	 viewBox="0 0 967 376" style="enable-background:new 0 0 967 376;" xml:space="preserve">
<style type="text/css">
	.st0{fill:#63BF7F;}
</style>
<path class="st0" d="M224.3,131v114.9h114.9V131H224.3z M331.7,238.4h-100v-100h100V238.4z"/>
<rect x="852.1" class="st0" width="114.9" height="114.9"/>
<path class="st0" d="M726,0v114.9h114.9V0H726z M833.4,107.4h-100V7.4h100V107.4z"/>
<rect x="594.9" class="st0" width="114.9" height="114.9"/>
<rect x="584.8" y="261.1" class="st0" width="114.9" height="114.9"/>
<path class="st0" d="M766.1,261.1V376H881V261.1H766.1z M873.5,368.6h-100v-100h100V368.6z"/>
<rect x="456.9" class="st0" width="114.9" height="114.9"/>
<rect x="456.9" y="131" class="st0" width="114.9" height="114.9"/>
<path class="st0" d="M0,261.1V376h114.9V261.1H0z M107.4,368.6H7.4v-100h100V368.6z"/>
</svg>
