<?xml version="1.0" encoding="utf-8"?>
<!-- Generator: Adobe Illustrator 25.2.1, SVG Export Plug-In . SVG Version: 6.00 Build 0)  -->
<svg version="1.1" id="Camada_1" xmlns="http://www.w3.org/2000/svg" xmlns:xlink="http://www.w3.org/1999/xlink" x="0px" y="0px"
	 viewBox="0 0 260.2 53.9" style="enable-background:new 0 0 260.2 53.9;" xml:space="preserve">
<style type="text/css">
	.st0{fill:#526278;}
	.st1{fill:#15243D;}
	.st2{fill:none;stroke:#63BF7F;stroke-miterlimit:10;}
	.st3{fill:none;stroke:#77CA89;stroke-miterlimit:10;}
	.st4{fill:none;stroke:#8CD593;stroke-miterlimit:10;}
	.st5{fill:none;stroke:#96DA97;stroke-miterlimit:10;}
	.st6{fill:none;stroke:#9FDE9C;stroke-miterlimit:10;}
	.st7{fill:none;stroke:#ABE5A2;stroke-miterlimit:10;}
	.st8{fill:#BEEFAB;}
	.st9{fill:#538183;}
	.st10{fill:#FFFFFF;}
</style>
<g>
	<g>
		<g>
			<path class="st0" d="M65.5,5.1c0-2.4,1-4,3.2-4c1.8,0,2.6,1,2.9,2.2l-1.3,0.4c-0.2-0.6-0.7-1.3-1.6-1.3c-1.3,0-1.8,1-1.8,2.6
				c0,1.5,0.5,2.6,1.8,2.6c1,0,1.4-0.8,1.6-1.4l1.3,0.6c-0.4,1.1-1.1,2.3-2.9,2.3C66.5,9.1,65.5,7.4,65.5,5.1z"/>
			<path class="st0" d="M74,6.5c0,0.8,0.2,1.3,0.8,1.3c0.6,0,0.9-0.6,0.9-1.5V3h1.5v4.6c0,0.4,0,1.2,0,1.4h-1.4
				c0-0.1-0.1-0.9-0.1-1.2c-0.3,1-0.9,1.3-1.6,1.3c-1.2,0-1.6-1-1.6-2.1V3H74V6.5z"/>
			<path class="st0" d="M81,4.4c-0.8,0-1.1,0.6-1.1,1.5V9h-1.5V4.4c0-0.4,0-1.3,0-1.4h1.4c0,0.3,0.1,0.7,0.1,1.1
				c0.1-0.7,0.6-1.2,1.3-1.2c0.1,0,0.2,0,0.3,0v1.5C81.3,4.4,81.2,4.4,81,4.4z"/>
			<path class="st0" d="M84.1,9.1c-1.5,0-2-0.8-2.2-1.8l1.3-0.2C83.3,7.6,83.5,8,84,8c0.5,0,0.7-0.2,0.7-0.6c0-0.4-0.2-0.6-1-0.8
				c-1.2-0.3-1.7-0.9-1.7-1.9c0-1.1,0.7-1.8,2-1.8c1.2,0,1.9,0.7,2,1.7l-1.3,0.1C84.7,4.2,84.4,4,84,4c-0.4,0-0.6,0.2-0.6,0.5
				c0,0.3,0.1,0.5,1.1,0.8c1,0.3,1.8,0.7,1.8,1.9C86.2,8.4,85.5,9.1,84.1,9.1z"/>
			<path class="st0" d="M89.3,9.1c-1.7,0-2.5-1.2-2.5-3.1c0-1.8,0.8-3.1,2.5-3.1c1.8,0,2.5,1.3,2.5,3.1C91.8,7.9,90.9,9.1,89.3,9.1z
				 M89.3,4.1c-0.7,0-1,0.6-1,1.9c0,1.3,0.4,1.9,1,1.9c0.7,0,1-0.6,1-1.9C90.3,4.7,89.9,4.1,89.3,4.1z"/>
			<path class="st0" d="M95.1,6c0-1.9,0.6-3.1,1.9-3.1c0.8,0,1.3,0.4,1.5,1.1c0-0.2,0-0.5,0-0.7v-3h1.4v7.4c0,0.3,0,0.8,0,1.3h-1.4
				c0-0.3-0.1-0.7-0.1-1.1c-0.2,0.7-0.7,1.2-1.6,1.2C95.5,9.1,95.1,7.7,95.1,6z M98.5,5.9c0-1.5-0.5-1.8-1-1.8
				c-0.6,0-0.9,0.6-0.9,1.9c0,1.3,0.3,1.9,0.9,1.9C98,7.9,98.5,7.5,98.5,5.9z"/>
			<path class="st0" d="M100.8,6c0-2.3,1.1-3.1,2.4-3.1c1.7,0,2.3,1.2,2.3,2.9c0,0.3,0,0.5,0,0.5h-3.1v0.2c0,0.8,0.2,1.5,0.9,1.5
				c0.5,0,0.7-0.2,0.8-0.8l1.4,0.1c-0.2,1-0.7,1.8-2.2,1.8C101.7,9.1,100.8,8.1,100.8,6z M102.3,5.3h1.7v0c0-1-0.3-1.4-0.8-1.4
				C102.7,3.9,102.4,4.3,102.3,5.3z"/>
			<path class="st0" d="M110.6,4.4h2.7v1.4h-2.7V9h-1.5V1.2h4.4v1.4h-2.9V4.4z"/>
			<path class="st0" d="M116.7,9.1c-1.7,0-2.5-1.2-2.5-3.1c0-1.8,0.8-3.1,2.5-3.1c1.8,0,2.5,1.3,2.5,3.1
				C119.3,7.9,118.4,9.1,116.7,9.1z M116.8,4.1c-0.7,0-1,0.6-1,1.9c0,1.3,0.4,1.9,1,1.9c0.7,0,1-0.6,1-1.9
				C117.8,4.7,117.4,4.1,116.8,4.1z"/>
			<path class="st0" d="M119.6,3h0.7V1.2h1.5V3h0.9v1.3h-0.9v2.8c0,0.4,0.1,0.6,0.5,0.6h0.5V9c-0.3,0-0.6,0.1-1.1,0.1
				c-0.8,0-1.3-0.6-1.3-1.7V4.3h-0.7V3z"/>
			<path class="st0" d="M128.4,9.1c-0.3,0-0.5,0-0.8,0c-0.7,0-1.2-0.4-1.2-1.1c-0.2,0.8-0.8,1.1-1.5,1.1c-1.1,0-1.6-0.9-1.6-1.8
				c0-1.4,0.8-1.9,2.5-1.9h0.5V4.9c0-0.7-0.3-0.9-0.7-0.9c-0.5,0-0.7,0.3-0.7,0.9l-1.3-0.1c0.1-1.1,0.7-1.8,2.1-1.8
				c1.4,0,2,0.8,2,2.2v2.4c0,0.3,0.1,0.4,0.4,0.4h0.3V9.1z M126.3,6.7V6.3h-0.6c-0.5,0-0.9,0.2-0.9,0.9c0,0.4,0.2,0.8,0.7,0.8
				C126,8,126.3,7.5,126.3,6.7z"/>
			<path class="st0" d="M129.1,0.2h1.4V9h-1.4V0.2z"/>
			<path class="st0" d="M131.5,6c0-2.3,1.1-3.1,2.4-3.1c1.7,0,2.3,1.2,2.3,2.9c0,0.3,0,0.5,0,0.5h-3.1v0.2c0,0.8,0.2,1.5,0.9,1.5
				c0.5,0,0.7-0.2,0.8-0.8l1.4,0.1c-0.2,1-0.7,1.8-2.2,1.8C132.4,9.1,131.5,8.1,131.5,6z M133.1,5.3h1.7v0c0-1-0.3-1.4-0.8-1.4
				C133.4,3.9,133.1,4.3,133.1,5.3z"/>
			<path class="st0" d="M136.9,6c0-2,0.8-3.1,2.4-3.1c1.4,0,2.1,1,2.2,2.1l-1.4,0.1c-0.1-0.6-0.3-1-0.8-1c-0.6,0-0.9,0.6-0.9,1.9
				c0,1.3,0.3,2,0.9,2c0.4,0,0.8-0.3,0.8-1.1l1.4,0.1c-0.1,1.2-0.8,2.2-2.3,2.2C137.7,9.1,136.9,7.9,136.9,6z"/>
			<path class="st0" d="M142.4,0.6h1.4v1.6h-1.4V0.6z M142.4,3h1.4v6h-1.4V3z"/>
			<path class="st0" d="M148,5.5c0-0.8-0.2-1.2-0.7-1.2c-0.5,0-0.8,0.5-0.8,1.5V9h-1.5V4.4c0-0.5,0-1.1,0-1.4h1.4
				c0,0.1,0,0.7,0.1,1.2c0.2-0.9,0.8-1.3,1.5-1.3c0.9,0,1.3,0.6,1.4,1.4c0.2-0.9,0.8-1.4,1.5-1.4c1.1,0,1.5,0.9,1.5,2.2V9h-1.5V5.4
				c0-0.8-0.1-1.2-0.6-1.2c-0.5,0-0.8,0.5-0.8,1.4V9H148V5.5z"/>
			<path class="st0" d="M153.2,6c0-2.3,1.1-3.1,2.4-3.1c1.7,0,2.3,1.2,2.3,2.9c0,0.3,0,0.5,0,0.5h-3.1v0.2c0,0.8,0.2,1.5,0.9,1.5
				c0.5,0,0.7-0.2,0.8-0.8l1.4,0.1c-0.2,1-0.7,1.8-2.2,1.8C154.1,9.1,153.2,8.1,153.2,6z M154.7,5.3h1.7v0c0-1-0.3-1.4-0.8-1.4
				C155.1,3.9,154.8,4.3,154.7,5.3z"/>
			<path class="st0" d="M162,5.5c0-0.8-0.2-1.3-0.8-1.3c-0.6,0-0.9,0.6-0.9,1.6V9h-1.5V4.4c0-0.6,0-1,0-1.4h1.4
				c0,0.2,0.1,0.8,0.1,1.2c0.2-0.9,0.8-1.3,1.6-1.3c1.2,0,1.6,1,1.6,2.1v4H162V5.5z"/>
			<path class="st0" d="M164.2,3h0.7V1.2h1.5V3h0.9v1.3h-0.9v2.8c0,0.4,0.1,0.6,0.5,0.6h0.5V9c-0.3,0-0.6,0.1-1.1,0.1
				c-0.8,0-1.3-0.6-1.3-1.7V4.3h-0.7V3z"/>
			<path class="st0" d="M170.5,9.1c-1.7,0-2.5-1.2-2.5-3.1c0-1.8,0.8-3.1,2.5-3.1c1.8,0,2.5,1.3,2.5,3.1
				C173,7.9,172.2,9.1,170.5,9.1z M170.5,4.1c-0.7,0-1,0.6-1,1.9c0,1.3,0.4,1.9,1,1.9c0.7,0,1-0.6,1-1.9
				C171.5,4.7,171.1,4.1,170.5,4.1z"/>
			<path class="st0" d="M176.3,6c0-1.9,0.6-3.1,1.9-3.1c0.8,0,1.3,0.4,1.5,1.1c0-0.2,0-0.5,0-0.7v-3h1.4v7.4c0,0.3,0,0.8,0,1.3h-1.4
				c0-0.3-0.1-0.7-0.1-1.1c-0.2,0.7-0.7,1.2-1.6,1.2C176.7,9.1,176.3,7.7,176.3,6z M179.7,5.9c0-1.5-0.5-1.8-1-1.8
				c-0.6,0-0.9,0.6-0.9,1.9c0,1.3,0.3,1.9,0.9,1.9C179.2,7.9,179.7,7.5,179.7,5.9z"/>
			<path class="st0" d="M182,6c0-2.3,1.1-3.1,2.4-3.1c1.7,0,2.3,1.2,2.3,2.9c0,0.3,0,0.5,0,0.5h-3.1v0.2c0,0.8,0.2,1.5,0.9,1.5
				c0.5,0,0.7-0.2,0.8-0.8l1.4,0.1c-0.2,1-0.7,1.8-2.2,1.8C182.9,9.1,182,8.1,182,6z M183.6,5.3h1.7v0c0-1-0.3-1.4-0.8-1.4
				C183.9,3.9,183.6,4.3,183.6,5.3z"/>
		</g>
		<g>
			<path class="st1" d="M66.6,18.7h2.1v9.5h4.3v2.1h-6.5V18.7z"/>
			<path class="st1" d="M74.6,17.9h2.1v2.4h-2.1V17.9z M74.6,21.4h2.1v8.9h-2.1V21.4z"/>
			<path class="st1" d="M78,25.8c0-2.8,0.9-4.6,2.8-4.6c1.1,0,1.9,0.6,2.2,1.6c0-0.3,0-0.7,0-1.1v-4.5H85v11c0,0.5,0,1.2,0.1,2h-2
				c-0.1-0.4-0.1-1.1-0.1-1.6c-0.3,1-1,1.8-2.4,1.8C78.7,30.4,78,28.3,78,25.8z M82.9,25.7c0-2.2-0.7-2.7-1.4-2.7
				c-0.9,0-1.4,0.8-1.4,2.8c0,1.9,0.4,2.9,1.3,2.9C82.2,28.7,82.9,28,82.9,25.7z"/>
			<path class="st1" d="M86.3,25.8c0-3.5,1.6-4.6,3.5-4.6c2.5,0,3.3,1.8,3.3,4.3c0,0.4,0,0.8,0,0.8h-4.5v0.2c0,1.1,0.3,2.2,1.3,2.2
				c0.7,0,1-0.4,1.1-1.2l2,0.1c-0.3,1.4-1,2.7-3.2,2.7C87.6,30.4,86.3,28.9,86.3,25.8z M88.5,24.8h2.4v0c0-1.5-0.5-2-1.2-2
				C89.1,22.8,88.6,23.3,88.5,24.8z"/>
			<path class="st1" d="M98.2,23.4c-1.1,0-1.6,0.9-1.6,2.3v4.6h-2.1v-6.8c0-0.6,0-1.9-0.1-2.1h2.1c0,0.4,0.1,1.1,0.1,1.6
				c0.2-1,0.8-1.8,1.9-1.8c0.1,0,0.3,0,0.5,0v2.2C98.6,23.4,98.4,23.4,98.2,23.4z"/>
			<path class="st1" d="M106.7,30.4c-0.5,0-0.7,0.1-1.1,0.1c-1,0-1.7-0.6-1.7-1.6c-0.3,1.1-1.1,1.6-2.1,1.6c-1.6,0-2.3-1.3-2.3-2.7
				c0-2.1,1.2-2.9,3.5-2.9h0.7v-0.7c0-1-0.4-1.4-1-1.4c-0.7,0-1,0.5-1,1.3l-1.9-0.1c0.1-1.6,1.1-2.7,3.1-2.7c2,0,2.9,1.1,2.9,3.2V28
				c0,0.4,0.1,0.6,0.5,0.6h0.5V30.4z M103.6,26.9v-0.7h-0.9c-0.7,0-1.3,0.3-1.3,1.3c0,0.6,0.3,1.2,1,1.2
				C103.1,28.8,103.6,28.1,103.6,26.9z"/>
			<path class="st1" d="M112.3,25.1c0-1.2-0.3-1.9-1.1-1.9c-0.9,0-1.3,0.9-1.3,2.4v4.7h-2.1v-6.8c0-0.9,0-1.6,0-2.1h2
				c0,0.2,0.1,1.1,0.1,1.8c0.4-1.3,1.2-2,2.3-2c1.8,0,2.3,1.5,2.3,3.2v5.9h-2.1V25.1z"/>
			<path class="st1" d="M118.8,33.8c-0.2,0-0.4,0-0.7-0.1v-1c0.2,0.1,0.4,0,0.6,0c0.6,0,0.9-0.2,0.9-0.5c0-0.4-0.2-0.5-0.8-0.5
				c-0.1,0-0.2,0-0.3,0l0.4-1.3c-2.1-0.2-3.1-1.9-3.1-4.5c0-2.9,1.2-4.6,3.5-4.6c2,0,3.1,1.5,3.2,3.2l-2.1,0.1
				c-0.1-0.9-0.5-1.5-1.2-1.5c-0.9,0-1.3,0.9-1.3,2.8c0,2,0.4,2.9,1.3,2.9c0.6,0,1.1-0.5,1.2-1.6l2,0.1c-0.1,1.6-1,2.9-2.7,3.2
				l-0.2,0.5c0.8,0,1.2,0.5,1.2,1.3C120.8,33,120.3,33.8,118.8,33.8z"/>
			<path class="st1" d="M130.4,30.4c-0.5,0-0.7,0.1-1.1,0.1c-1,0-1.7-0.6-1.7-1.6c-0.3,1.1-1.1,1.6-2.1,1.6c-1.6,0-2.3-1.3-2.3-2.7
				c0-2.1,1.2-2.9,3.5-2.9h0.7v-0.7c0-1-0.4-1.4-1-1.4c-0.7,0-1,0.5-1,1.3l-1.9-0.1c0.1-1.6,1.1-2.7,3.1-2.7c2,0,2.9,1.1,2.9,3.2V28
				c0,0.4,0.1,0.6,0.5,0.6h0.5V30.4z M127.3,26.9v-0.7h-0.9c-0.7,0-1.3,0.3-1.3,1.3c0,0.6,0.3,1.2,1,1.2
				C126.8,28.8,127.3,28.1,127.3,26.9z"/>
			<path class="st1" d="M134,30.4c-2.2,0-3-1.2-3.1-2.6l1.9-0.3c0.1,0.6,0.4,1.2,1.2,1.2c0.7,0,1-0.3,1-0.9c0-0.6-0.3-0.8-1.5-1.2
				c-1.8-0.5-2.4-1.4-2.4-2.8c0-1.6,1-2.7,2.9-2.7c1.7,0,2.8,1.1,3,2.5l-1.9,0.2c0-0.7-0.5-1.1-1.1-1.1c-0.6,0-0.9,0.3-0.9,0.7
				c0,0.5,0.2,0.8,1.6,1.2c1.5,0.4,2.5,1,2.5,2.8C137.1,29.4,136.1,30.4,134,30.4z"/>
			<path class="st1" d="M144.4,30.3h-2.1V18.7h3.9c2.4,0,3.5,1.4,3.5,3.5c0,2-0.7,3-1.9,3.5l2.4,4.6h-2.4l-2.1-4.3h-1.3V30.3z
				 M145.9,20.8h-1.5v3.2h1.6c1.1,0,1.6-0.6,1.6-1.6C147.5,21.3,146.9,20.8,145.9,20.8z"/>
			<path class="st1" d="M151,25.8c0-3.5,1.6-4.6,3.5-4.6c2.5,0,3.3,1.8,3.3,4.3c0,0.4,0,0.8,0,0.8h-4.5v0.2c0,1.1,0.3,2.2,1.3,2.2
				c0.7,0,1-0.4,1.1-1.2l2,0.1c-0.3,1.4-1,2.7-3.2,2.7C152.3,30.4,151,28.9,151,25.8z M153.2,24.8h2.4v0c0-1.5-0.5-2-1.2-2
				C153.8,22.8,153.3,23.3,153.2,24.8z"/>
			<path class="st1" d="M158.8,25.7c0-2.8,0.9-4.5,2.8-4.5c1,0,1.9,0.6,2.2,1.7c0-0.5,0.1-1.2,0.1-1.5h2c0,0.3-0.1,1.4-0.1,2.1v6.8
				c0,2.6-1.2,3.9-3.6,3.9c-2.2,0-3-1.2-3.2-2.6l2.1-0.2c0.1,0.7,0.5,1.2,1.2,1.2c0.9,0,1.4-0.5,1.4-2.2v-1.3c0-0.1,0-0.3,0-0.5
				c-0.3,1-1.1,1.7-2.3,1.7C159.6,30.3,158.8,28.5,158.8,25.7z M162.3,23.1c-0.8,0-1.4,0.7-1.4,2.7c0,1.8,0.4,2.7,1.4,2.7
				c0.7,0,1.4-0.6,1.4-2.7C163.7,23.7,163,23.1,162.3,23.1z"/>
			<path class="st1" d="M169.6,26.6c0,1.2,0.3,1.9,1.1,1.9c0.8,0,1.3-0.8,1.3-2.2v-4.8h2.1v6.9c0,0.5,0,1.8,0.1,2h-2
				c0-0.2-0.1-1.4-0.1-1.8c-0.5,1.5-1.3,2-2.3,2c-1.8,0-2.3-1.5-2.3-3.1v-5.9h2.1V26.6z"/>
			<path class="st1" d="M176,17.3h2.1v13H176V17.3z"/>
			<path class="st1" d="M186.7,30.4c-0.5,0-0.7,0.1-1.1,0.1c-1,0-1.7-0.6-1.7-1.6c-0.3,1.1-1.1,1.6-2.1,1.6c-1.6,0-2.3-1.3-2.3-2.7
				c0-2.1,1.2-2.9,3.5-2.9h0.7v-0.7c0-1-0.4-1.4-1-1.4c-0.7,0-1,0.5-1,1.3l-1.9-0.1c0.1-1.6,1.1-2.7,3.1-2.7c2,0,2.9,1.1,2.9,3.2V28
				c0,0.4,0.1,0.6,0.5,0.6h0.5V30.4z M183.6,26.9v-0.7h-0.9c-0.7,0-1.3,0.3-1.3,1.3c0,0.6,0.3,1.2,1,1.2
				C183.1,28.8,183.6,28.1,183.6,26.9z"/>
			<path class="st1" d="M187,21.4h0.9v-2.7h2.1v2.7h1.4v1.9H190v4.2c0,0.6,0.2,0.8,0.7,0.8h0.7v2.1c-0.4,0-0.8,0.1-1.6,0.1
				c-1.2,0-1.9-0.9-1.9-2.5v-4.7H187V21.4z"/>
			<path class="st1" d="M196.1,30.4c-2.4,0-3.6-1.8-3.6-4.6c0-2.7,1.2-4.6,3.6-4.6c2.6,0,3.6,1.9,3.6,4.6
				C199.7,28.6,198.6,30.4,196.1,30.4z M196.2,23c-1,0-1.5,0.9-1.5,2.8c0,1.9,0.5,2.9,1.5,2.9c1,0,1.5-0.9,1.5-2.9
				C197.6,24,197.1,23,196.2,23z M195.3,20.6L197,18h1.8v0l-2.1,2.6L195.3,20.6L195.3,20.6z"/>
			<path class="st1" d="M204.9,23.4c-1.1,0-1.6,0.9-1.6,2.3v4.6h-2.1v-6.8c0-0.6,0-1.9-0.1-2.1h2.1c0,0.4,0.1,1.1,0.1,1.6
				c0.2-1,0.8-1.8,1.9-1.8c0.1,0,0.3,0,0.5,0v2.2C205.3,23.4,205.1,23.4,204.9,23.4z"/>
			<path class="st1" d="M206.9,17.9h2.1v2.4h-2.1V17.9z M206.9,21.4h2.1v8.9h-2.1V21.4z"/>
			<path class="st1" d="M217.4,30.4c-0.5,0-0.7,0.1-1.1,0.1c-1,0-1.7-0.6-1.7-1.6c-0.3,1.1-1.1,1.6-2.1,1.6c-1.6,0-2.3-1.3-2.3-2.7
				c0-2.1,1.2-2.9,3.5-2.9h0.7v-0.7c0-1-0.4-1.4-1-1.4c-0.7,0-1,0.5-1,1.3l-1.9-0.1c0.1-1.6,1.1-2.7,3.1-2.7c2,0,2.9,1.1,2.9,3.2V28
				c0,0.4,0.1,0.6,0.5,0.6h0.5V30.4z M214.4,26.9v-0.7h-0.9c-0.7,0-1.3,0.3-1.3,1.3c0,0.6,0.3,1.2,1,1.2
				C213.9,28.8,214.4,28.1,214.4,26.9z"/>
			<path class="st1" d="M221.1,30.4c-2.2,0-3-1.2-3.1-2.6l1.9-0.3c0.1,0.6,0.4,1.2,1.2,1.2c0.7,0,1-0.3,1-0.9c0-0.6-0.3-0.8-1.5-1.2
				c-1.8-0.5-2.4-1.4-2.4-2.8c0-1.6,1-2.7,2.9-2.7c1.7,0,2.8,1.1,3,2.5l-1.9,0.2c0-0.7-0.5-1.1-1.1-1.1c-0.6,0-0.9,0.3-0.9,0.7
				c0,0.5,0.2,0.8,1.6,1.2c1.5,0.4,2.5,1,2.5,2.8C224.2,29.4,223.1,30.4,221.1,30.4z"/>
			<path class="st1" d="M68.8,43.3h3.9v2.1h-3.9v4.8h-2.2V38.6H73v2h-4.2V43.3z"/>
			<path class="st1" d="M74,45.7c0-3.5,1.6-4.6,3.5-4.6c2.5,0,3.3,1.8,3.3,4.3c0,0.4,0,0.8,0,0.8h-4.5v0.2c0,1.1,0.3,2.2,1.3,2.2
				c0.7,0,1-0.4,1.1-1.2l2,0.1c-0.3,1.4-1,2.7-3.2,2.7C75.3,50.3,74,48.8,74,45.7z M76.2,44.7h2.4v0c0-1.5-0.5-2-1.2-2
				C76.8,42.7,76.3,43.1,76.2,44.7z"/>
			<path class="st1" d="M86.4,44.9c0-1.2-0.2-1.8-0.9-1.8c-0.7,0-1.1,0.7-1.1,2.2v4.9h-2.1v-6.9c0-0.8,0-1.7-0.1-2h2
				c0,0.2,0.1,1.1,0.1,1.8c0.3-1.3,1.1-2,2.1-2c1.3,0,1.8,1,2,2.1c0.3-1.4,1.2-2.1,2.2-2.1c1.6,0,2.1,1.4,2.1,3.3v5.8h-2.1v-5.3
				c0-1.1-0.2-1.7-0.9-1.7c-0.7,0-1.1,0.7-1.1,2.1v5h-2.1V44.9z"/>
			<path class="st1" d="M94.5,37.7h2.1v2.4h-2.1V37.7z M94.5,41.3h2.1v8.9h-2.1V41.3z"/>
			<path class="st1" d="M102.8,44.9c0-1.2-0.3-1.9-1.1-1.9c-0.9,0-1.3,0.9-1.3,2.4v4.7h-2.1v-6.8c0-0.9,0-1.6,0-2.1h2
				c0,0.2,0.1,1.1,0.1,1.8c0.4-1.3,1.2-2,2.3-2c1.8,0,2.3,1.5,2.3,3.2v5.9h-2.1V44.9z"/>
			<path class="st1" d="M106.7,37.7h2.1v2.4h-2.1V37.7z M106.7,41.3h2.1v8.9h-2.1V41.3z"/>
			<path class="st1" d="M115,44.9c0-1.2-0.3-1.9-1.1-1.9c-0.9,0-1.3,0.9-1.3,2.4v4.7h-2.1v-6.8c0-0.9,0-1.6,0-2.1h2
				c0,0.2,0.1,1.1,0.1,1.8c0.4-1.3,1.2-2,2.3-2c1.8,0,2.3,1.5,2.3,3.2v5.9H115V44.9z"/>
			<path class="st1" d="M125.6,50.2c-0.5,0.1-0.7,0.1-1.1,0.1c-1,0-1.7-0.6-1.7-1.6c-0.3,1.1-1.1,1.6-2.1,1.6
				c-1.6,0-2.3-1.3-2.3-2.6c0-2.1,1.2-2.9,3.5-2.9h0.7V44c0-1-0.4-1.4-1-1.4c-0.7,0-1,0.5-1,1.3l-1.9-0.1c0.1-1.6,1.1-2.7,3.1-2.7
				c2,0,2.9,1.1,2.9,3.2v3.5c0,0.4,0.1,0.6,0.5,0.6h0.5V50.2z M122.6,46.8v-0.7h-0.9c-0.7,0-1.3,0.3-1.3,1.3c0,0.6,0.3,1.2,1,1.2
				C122.1,48.6,122.6,48,122.6,46.8z"/>
			<path class="st1" d="M129.3,50.3c-2.2,0-3-1.2-3.1-2.6l1.9-0.3c0.1,0.6,0.4,1.2,1.2,1.2c0.7,0,1-0.3,1-0.9c0-0.6-0.3-0.8-1.5-1.2
				c-1.8-0.5-2.4-1.4-2.4-2.8c0-1.6,1-2.7,2.9-2.7c1.7,0,2.8,1.1,3,2.5l-1.9,0.2c0-0.7-0.5-1.1-1.1-1.1c-0.6,0-0.9,0.3-0.9,0.7
				c0,0.5,0.2,0.8,1.6,1.2c1.5,0.4,2.5,1,2.5,2.8C132.4,49.2,131.3,50.3,129.3,50.3z"/>
			<path class="st1" d="M137,45.7c0-2.8,0.9-4.6,2.8-4.6c1.1,0,1.9,0.6,2.2,1.6c0-0.3,0-0.7,0-1.1v-4.5h2.1v11c0,0.5,0,1.2,0.1,2h-2
				c-0.1-0.4-0.1-1.1-0.1-1.6c-0.3,1-1,1.8-2.4,1.8C137.7,50.3,137,48.2,137,45.7z M142,45.6c0-2.2-0.7-2.7-1.4-2.7
				c-0.9,0-1.4,0.8-1.4,2.8c0,1.9,0.4,2.9,1.3,2.9C141.2,48.5,142,47.9,142,45.6z"/>
			<path class="st1" d="M152.6,50.2c-0.5,0.1-0.7,0.1-1.1,0.1c-1,0-1.7-0.6-1.7-1.6c-0.3,1.1-1.1,1.6-2.1,1.6
				c-1.6,0-2.3-1.3-2.3-2.6c0-2.1,1.2-2.9,3.5-2.9h0.7V44c0-1-0.4-1.4-1-1.4c-0.7,0-1,0.5-1,1.3l-1.9-0.1c0.1-1.6,1.1-2.7,3.1-2.7
				c2,0,2.9,1.1,2.9,3.2v3.5c0,0.4,0.1,0.6,0.5,0.6h0.5V50.2z M149.5,46.8v-0.7h-0.9c-0.7,0-1.3,0.3-1.3,1.3c0,0.6,0.3,1.2,1,1.2
				C149,48.6,149.5,48,149.5,46.8z"/>
			<path class="st1" d="M156.2,50.3c-2.2,0-3-1.2-3.1-2.6l1.9-0.3c0.1,0.6,0.4,1.2,1.2,1.2c0.7,0,1-0.3,1-0.9c0-0.6-0.3-0.8-1.5-1.2
				c-1.8-0.5-2.4-1.4-2.4-2.8c0-1.6,1-2.7,2.9-2.7c1.7,0,2.8,1.1,3,2.5l-1.9,0.2c0-0.7-0.5-1.1-1.1-1.1c-0.6,0-0.9,0.3-0.9,0.7
				c0,0.5,0.2,0.8,1.6,1.2c1.5,0.4,2.5,1,2.5,2.8C159.3,49.2,158.3,50.3,156.2,50.3z"/>
			<path class="st1" d="M164,44.3c0-3.6,1.4-5.9,4.7-5.9c2.6,0,3.7,1.5,4.2,3.3l-1.9,0.6c-0.2-0.9-1-1.9-2.3-1.9
				c-1.8,0-2.5,1.5-2.5,3.8c0,2.3,0.7,3.9,2.6,3.9c1.5,0,2-1.1,2.3-2.1l1.9,0.8c-0.5,1.7-1.6,3.4-4.2,3.4
				C165.4,50.3,164,47.8,164,44.3z"/>
			<path class="st1" d="M177.3,50.3c-2.4,0-3.6-1.8-3.6-4.6c0-2.7,1.2-4.6,3.6-4.6c2.6,0,3.6,1.9,3.6,4.6
				C181,48.5,179.8,50.3,177.3,50.3z M177.4,42.9c-1,0-1.5,0.9-1.5,2.8c0,1.9,0.5,2.9,1.5,2.9c1,0,1.5-0.9,1.5-2.9
				C178.8,43.8,178.3,42.9,177.4,42.9z"/>
			<path class="st1" d="M186.6,44.9c0-1.2-0.2-1.8-0.9-1.8c-0.7,0-1.1,0.7-1.1,2.2v4.9h-2.1v-6.9c0-0.8,0-1.7-0.1-2h2
				c0,0.2,0.1,1.1,0.1,1.8c0.3-1.3,1.1-2,2.1-2c1.3,0,1.8,1,2,2.1c0.3-1.4,1.2-2.1,2.2-2.1c1.6,0,2.1,1.4,2.1,3.3v5.8h-2.1v-5.3
				c0-1.1-0.2-1.7-0.9-1.7c-0.7,0-1.1,0.7-1.1,2.1v5h-2.1V44.9z"/>
			<path class="st1" d="M196.6,46.5c0,1.2,0.3,1.9,1.1,1.9c0.8,0,1.3-0.8,1.3-2.2v-4.8h2.1v6.9c0,0.5,0,1.8,0.1,2h-2
				c0-0.2-0.1-1.4-0.1-1.8c-0.5,1.5-1.3,2-2.3,2c-1.8,0-2.3-1.5-2.3-3.1v-5.9h2.1V46.5z"/>
			<path class="st1" d="M207.6,44.9c0-1.2-0.3-1.9-1.1-1.9c-0.9,0-1.3,0.9-1.3,2.4v4.7h-2.1v-6.8c0-0.9,0-1.6,0-2.1h2
				c0,0.2,0.1,1.1,0.1,1.8c0.4-1.3,1.2-2,2.3-2c1.8,0,2.3,1.5,2.3,3.2v5.9h-2.1V44.9z"/>
			<path class="st1" d="M211.5,37.7h2.1v2.4h-2.1V37.7z M211.5,41.3h2.1v8.9h-2.1V41.3z"/>
			<path class="st1" d="M214.8,45.7c0-2.9,1.2-4.6,3.5-4.6c2,0,3.1,1.5,3.2,3.2l-2.1,0.1c-0.1-0.9-0.5-1.5-1.2-1.5
				c-0.9,0-1.3,0.9-1.3,2.8c0,2,0.4,2.9,1.3,2.9c0.6,0,1.1-0.5,1.2-1.6l2,0.1c-0.2,1.7-1.2,3.3-3.3,3.3
				C216,50.3,214.8,48.5,214.8,45.7z"/>
			<path class="st1" d="M229.5,50.2c-0.5,0.1-0.7,0.1-1.1,0.1c-1,0-1.7-0.6-1.7-1.6c-0.3,1.1-1.1,1.6-2.1,1.6
				c-1.6,0-2.3-1.3-2.3-2.6c0-2.1,1.2-2.9,3.5-2.9h0.7V44c0-1-0.4-1.4-1-1.4c-0.7,0-1,0.5-1,1.3l-1.9-0.1c0.1-1.6,1.1-2.7,3.1-2.7
				c2,0,2.9,1.1,2.9,3.2v3.5c0,0.4,0.1,0.6,0.5,0.6h0.5V50.2z M226.5,46.8v-0.7h-0.9c-0.7,0-1.3,0.3-1.3,1.3c0,0.6,0.3,1.2,1,1.2
				C226,48.6,226.5,48,226.5,46.8z"/>
			<path class="st1" d="M233.2,53.6c-0.2,0-0.4,0-0.7,0v-1c0.2,0.1,0.4,0.1,0.6,0.1c0.6,0,0.9-0.2,0.9-0.5c0-0.4-0.2-0.5-0.8-0.5
				c-0.1,0-0.2,0-0.3,0l0.4-1.3c-2.1-0.2-3.1-1.9-3.1-4.5c0-2.9,1.2-4.6,3.5-4.6c2,0,3.1,1.5,3.2,3.2l-2.1,0.1
				c-0.1-0.9-0.5-1.5-1.2-1.5c-0.9,0-1.3,0.9-1.3,2.8c0,2,0.4,2.9,1.3,2.9c0.6,0,1.1-0.5,1.2-1.6l2,0.1c-0.1,1.6-1,2.9-2.7,3.2
				l-0.2,0.5c0.8,0.1,1.2,0.5,1.2,1.3C235.3,52.9,234.8,53.6,233.2,53.6z"/>
			<path class="st1" d="M241.2,50.3c-2.4,0-3.6-1.8-3.6-4.6c0-2.7,1.2-4.6,3.6-4.6c2.6,0,3.6,1.9,3.6,4.6
				C244.8,48.5,243.6,50.3,241.2,50.3z M240.1,39.4c-0.4,0-0.6,0.3-0.6,0.9v0.1h-1v-0.2c0-1,0.2-2.3,1.5-2.3c0.8,0,1.7,1,2.2,1
				c0.4,0,0.6-0.3,0.6-0.9V38h1v0.1c0,1.1-0.2,2.3-1.5,2.3C241.5,40.5,240.6,39.4,240.1,39.4z M241.3,42.9c-1,0-1.5,0.9-1.5,2.8
				c0,1.9,0.5,2.9,1.5,2.9c1,0,1.5-0.9,1.5-2.9C242.7,43.8,242.2,42.9,241.3,42.9z"/>
			<path class="st1" d="M245.8,45.7c0-3.5,1.6-4.6,3.5-4.6c2.5,0,3.3,1.8,3.3,4.3c0,0.4,0,0.8,0,0.8H248v0.2c0,1.1,0.3,2.2,1.3,2.2
				c0.7,0,1-0.4,1.1-1.2l2,0.1c-0.3,1.4-1,2.7-3.2,2.7C247,50.3,245.8,48.8,245.8,45.7z M248,44.7h2.4v0c0-1.5-0.5-2-1.2-2
				C248.6,42.7,248,43.1,248,44.7z"/>
			<path class="st1" d="M256.6,50.3c-2.2,0-3-1.2-3.1-2.6l1.9-0.3c0.1,0.6,0.4,1.2,1.2,1.2c0.7,0,1-0.3,1-0.9c0-0.6-0.3-0.8-1.5-1.2
				c-1.8-0.5-2.4-1.4-2.4-2.8c0-1.6,1-2.7,2.9-2.7c1.7,0,2.8,1.1,3,2.5l-1.9,0.2c0-0.7-0.5-1.1-1.1-1.1c-0.6,0-0.9,0.3-0.9,0.7
				c0,0.5,0.2,0.8,1.6,1.2c1.5,0.4,2.5,1,2.5,2.8C259.7,49.2,258.6,50.3,256.6,50.3z"/>
		</g>
	</g>
	<g>
		<g>
			<circle class="st2" cx="36.6" cy="26.3" r="24"/>
			<circle class="st3" cx="36.6" cy="26.3" r="19.6"/>
			<circle class="st4" cx="36.6" cy="26.3" r="14.8"/>
			<circle class="st5" cx="36.6" cy="26.3" r="11.1"/>
			<circle class="st6" cx="36.6" cy="26.3" r="7.1"/>
			<circle class="st7" cx="36.6" cy="26.3" r="3.9"/>
			<circle class="st8" cx="36.6" cy="26.3" r="0.9"/>
		</g>
		<circle class="st9" cx="60.6" cy="26.3" r="2.7"/>
		<circle class="st9" cx="29.5" cy="44.4" r="2.7"/>
		<circle class="st9" cx="30.6" cy="12.5" r="2.7"/>
		<circle class="st9" cx="15.9" cy="26.3" r="15.3"/>
		<circle class="st9" cx="47.7" cy="40.6" r="12.9"/>
		<circle class="st9" cx="46.1" cy="11.7" r="11.3"/>
		<path class="st10" d="M38.2,13.3c0.2,1.9,1.9,3.3,3.9,3.4l0.7,0l2.3,0v-3.9h-2.2l2.2-1.9l0.9-0.8l0.9,0.8l2.2,1.9H47v1.7h0v2.2
			l3.5,0v0c0.9,0,1.8-0.2,2.5-0.8c1.7-1.6,1.3-4.6-1-5.3c-0.5-0.2-0.4-0.1-0.4-0.6c0-2.5-1.8-4.7-4.3-5.1c-2.6-0.4-5,1.1-5.8,3.6
			c-0.1,0.4,0,0.3-0.5,0.4C39.1,9.6,37.9,11.2,38.2,13.3z"/>
		<g>
			<path class="st10" d="M51.9,40.6c0-1.9,0-3.7,0-5.6c0-1-0.5-1.5-1.5-1.5c-1.8,0-3.7,0-5.5,0c-0.9,0-1.5,0.5-1.5,1.4
				c0,3.8,0,7.5,0,11.3c0,0.8,0.6,1.4,1.4,1.4c1.9,0,3.8,0,5.6,0c0.3,0,0.6-0.1,0.9-0.3c0.4-0.3,0.5-0.7,0.5-1.2
				C51.9,44.3,51.9,42.4,51.9,40.6z M47.7,47c-0.3,0-0.6-0.3-0.6-0.6c0-0.3,0.3-0.6,0.6-0.6c0.3,0,0.6,0.3,0.6,0.6
				C48.3,46.7,48,47,47.7,47z M50.4,45c-1.8,0-3.7,0-5.5,0c-0.2,0-0.3-0.1-0.3-0.3c0-2.9,0-5.8,0-8.6c0-0.2,0.1-0.3,0.3-0.3
				c1.8,0,3.7,0,5.5,0c0.2,0,0.3,0.1,0.3,0.3c0,1.4,0,2.9,0,4.3c0,1.4,0,2.9,0,4.3C50.7,45,50.7,45,50.4,45z"/>
		</g>
		<g>
			<g>
				<path class="st10" d="M18.8,25.3c-0.2,0-0.3-0.1-0.3-0.3c-0.2-1-1-1.8-2-2c-0.2,0-0.3-0.2-0.3-0.4c0-0.2,0.2-0.3,0.4-0.3
					c1.3,0.3,2.3,1.3,2.6,2.6C19.2,25.1,19.1,25.3,18.8,25.3C18.8,25.3,18.8,25.3,18.8,25.3z"/>
			</g>
			<g>
				<path class="st10" d="M21,25.1c-0.2,0-0.3-0.1-0.3-0.3c-0.3-2.1-2-3.7-4-4c-0.2,0-0.3-0.2-0.3-0.4c0-0.2,0.2-0.3,0.4-0.3
					c1.2,0.2,2.2,0.7,3,1.5c0.8,0.8,1.4,1.9,1.6,3C21.4,24.9,21.3,25,21,25.1C21,25.1,21,25.1,21,25.1z"/>
			</g>
			<g>
				<path class="st10" d="M23.3,24.9c-0.2,0-0.3-0.1-0.3-0.3c-0.4-3.1-2.9-5.6-6-6c-0.2,0-0.3-0.2-0.3-0.4c0-0.2,0.2-0.3,0.4-0.3
					c3.4,0.5,6.1,3.2,6.6,6.6C23.6,24.7,23.5,24.8,23.3,24.9C23.3,24.9,23.3,24.9,23.3,24.9z"/>
			</g>
			<g>
				<path class="st10" d="M21.2,31.1c0,0.1-0.1,0.2-0.1,0.3c-1.3,1-2.6,1.6-4,1.8c-0.4,0.1-0.9,0.1-1.3,0.1c-0.7,0-1.3-0.1-2-0.3
					l0.7,2.1c0,0.1,0,0.2,0,0.3c-0.1,0.1-0.2,0.1-0.3,0.1H9.4c-0.1,0-0.2-0.1-0.3-0.1s-0.1-0.2,0-0.3l1.5-4c0,0-0.1-0.1-0.1-0.1
					c-0.3-0.3-1.5-1.5-2-3.4c-0.3-1.1-0.4-2.2-0.2-3.3c0.2-1.3,0.9-2.7,1.8-4c0.1-0.1,0.2-0.1,0.3-0.1c0.1,0,0.2,0,0.3,0.1l4.4,4.4
					c0.2-0.2,0.5-0.3,0.8-0.4c0.3,0,0.6,0.1,0.8,0.3c0.4,0.4,0.4,1.2-0.1,1.7l4.4,4.4C21.2,30.9,21.2,31,21.2,31.1z"/>
			</g>
		</g>
	</g>
</g>
</svg>
