<svg width="136" height="143" viewBox="0 0 136 143" fill="none" xmlns="http://www.w3.org/2000/svg">
<g id="Desktop - 1" clip-path="url(#clip0_1_2685)">
<g id="Group 5">
<path id="Vector" d="M86.9805 0.00165622C87.141 -0.00542377 87.3023 0.0102191 87.4582 0.0481285C88.6373 0.326567 88.9484 1.39485 88.2843 2.34551C88.0759 2.64377 87.6849 2.80818 87.3669 2.98134C87.4658 6.07844 87.3753 9.72505 87.3806 12.8736C87.319 22.6598 87.3395 32.4465 87.443 42.2324C87.475 43.9143 87.2772 45.6464 87.3532 47.2921C88.187 47.6249 89.9518 48.5854 90.6858 48.6391C91.8406 48.7237 93.4844 48.6886 94.6688 48.6873L102.63 48.6828L115.465 48.6827C117.963 48.6814 120.432 48.6849 122.928 48.6203C126.517 48.5273 128.412 46.7229 131.129 44.6488L134.976 41.707C135.273 41.4777 135.541 41.2168 135.909 41.2632L135.993 41.4329C135.991 41.6755 135.972 41.933 135.769 42.0893C134.988 42.6899 133.958 43.5297 133.177 44.0718C131.177 45.4596 128.247 48.1741 125.987 48.9186C123.723 49.6643 119.912 49.4532 117.397 49.4506L109.787 49.4419C103.789 49.4919 97.7914 49.4652 91.7949 49.3619C93.0691 50.0755 95.0408 49.8965 96.48 49.888L101.151 49.8883L116.476 49.8732C119.056 49.8615 121.845 49.6496 124.391 50.0864C125.387 50.2572 126.339 50.564 127.231 51.0399C128.116 51.5117 135.497 56.8638 135.805 57.3396C135.977 57.6027 136.042 57.9011 135.973 58.2094C135.934 58.2206 135.895 58.2318 135.857 58.243C133.157 56.3117 130.576 54.2196 127.852 52.32C126.43 51.3289 124.725 50.8064 122.996 50.749C121.006 50.6829 118.993 50.7168 116.999 50.7161L105.63 50.7093C102.89 50.6875 100.15 50.6912 97.4088 50.7202C96.8771 50.7266 95.3801 50.6471 95.0453 50.6858L95.0286 50.7484C95.4554 51.1636 103.124 54.5699 104.29 55.1071L128.218 66.1799C129.81 64.5912 131.762 66.0777 130.532 67.9827C129.129 68.8698 128.125 68.0851 128.093 66.5071C125.282 65.1156 122.255 63.7544 119.397 62.4319L104.28 55.4675L97.4765 52.3088C96.8132 52.0021 94.5927 50.9341 94.0504 50.8189C92.4347 50.475 89.7973 50.9052 88.1223 50.6271C88.5232 52.7453 89.5319 56.1034 90.113 58.2578L93.7073 71.6868C94.3714 74.156 95.2454 77.0846 95.7825 79.5432C96.6572 79.2177 97.6332 79.2786 97.993 80.2793C98.1284 80.6527 98.101 81.0649 97.9177 81.417C97.634 81.9729 97.2498 82.0931 96.6976 82.2649C96.5295 82.2284 96.3636 82.182 96.2008 82.1265C94.9594 81.7052 95.1473 80.6862 95.4949 79.7037C93.6982 72.6822 91.6839 65.6952 89.8681 58.6763C89.3714 56.7562 88.8678 54.8062 88.3155 52.9033C88.1329 52.2003 87.9078 51.4247 87.8348 50.7088C87.0916 50.6561 86.0312 50.6924 85.256 50.6935L80.5679 50.6934L65.5347 50.7011L47.5999 50.7195C46.5174 50.7272 42.1577 50.6058 41.6194 50.8661C35.3004 53.9204 26.7406 59.3943 20.9299 62.9864L8.31138 70.7567C5.82081 72.2883 3.1892 73.8556 0.753464 75.4587C0.784957 74.9675 0.812113 74.4754 0.834782 73.9834C1.57265 73.3378 2.75218 72.5233 3.57182 71.9233L7.83747 68.7722C14.6373 63.7516 21.5351 58.8684 28.2753 53.7705C29.6203 52.7532 31.0572 51.7276 32.3357 50.6356C31.2555 50.7544 29.7294 50.7147 28.6345 50.7086L23.7615 50.6968C22.9212 50.6955 21.8263 50.5741 21.0117 50.7597C20.3915 50.9009 6.01296 61.6862 3.83274 63.2973C3.13846 63.8104 0.881336 65.653 0.346419 65.8828C0.182794 65.9531 0.163396 65.9675 0 65.9033L0.00159715 65.7617C0.536971 65.2705 1.31919 64.7336 1.92166 64.2911L5.09526 61.9578L14.3158 55.1348C16.0844 53.8404 18.7519 51.9994 20.379 50.623C19.1791 50.735 18.0507 50.695 16.8482 50.7006L11.322 50.7166L4.16988 50.7127C3.50192 50.7106 0.585732 50.7913 0.240606 50.582C0.15016 50.3398 0.17648 50.2703 0.220676 50.0113C0.365284 49.8799 0.430551 49.8514 0.637915 49.8492C7.5211 49.7777 14.4988 50.0274 21.3702 49.8686C21.5794 49.7499 21.7711 49.6734 21.8918 49.4744C21.2021 49.1066 4.68852 49.7254 2.62104 49.4425C1.95277 49.3511 0.70942 49.7545 0.205082 49.189C0.160049 48.8984 0.12848 48.9809 0.248289 48.7713C0.701052 48.5671 17.1806 48.7368 18.5801 48.6845C19.0745 48.6661 22.4222 48.741 22.7799 48.6455C23.6738 48.4069 25.9402 46.6723 26.8608 46.0488C30.133 43.8322 33.3933 41.7692 36.9827 40.1133C40.3307 38.5471 43.8924 37.4857 47.5517 36.9637C51.1527 36.4423 54.6352 36.4722 58.2623 36.4709L67.9929 36.4714L80.0301 36.4838C82.2368 36.4848 84.8186 36.4155 87.0064 36.5292L87.0079 2.90058C85.3344 2.26376 85.345 0.668871 86.9805 0.00165622ZM38.2975 46.4021C44.9778 42.1779 50.4184 41.0372 58.3135 41.0546C67.8294 41.0755 77.4787 40.7863 86.9843 41.0293C86.9965 39.6327 86.995 38.2144 87.0208 36.82C81.7051 37.0463 75.7656 36.7444 70.3693 36.86L58.2369 36.8615C55.7018 36.8609 53.1059 36.8142 50.577 36.9761C44.4823 37.3662 38.9357 39.2188 33.6146 42.1835C31.4527 43.4081 29.3451 44.726 27.2977 46.1335C26.1421 46.9284 24.7994 47.9583 23.6232 48.6761L30.9938 48.6901C32.0948 48.691 33.9381 48.7346 34.9988 48.6575C36.0318 47.964 37.2815 47.0243 38.2975 46.4021ZM46.8197 48.6136C48.111 48.7306 50.0093 48.6711 51.3563 48.6682L58.663 48.6667L81.2517 48.6639C82.6491 48.6593 85.965 48.5656 87.2057 48.6961C87.0771 48.2859 87.0284 48.1201 86.9737 47.6975L66.4061 47.6793L57.9794 47.5767C56.4486 47.5621 54.8438 47.5058 53.317 47.5823C51.0124 47.7614 49.063 47.9713 46.8197 48.6136ZM43.4841 49.8232C44.7283 49.9452 46.915 49.886 48.2329 49.8889L57.4016 49.8899L86.4777 49.8927C86.7865 49.9068 87.1456 49.9635 87.4004 49.809L87.478 49.6797C87.0809 49.2552 84.6756 49.4239 83.9811 49.422L77.8385 49.4089L61.0314 49.4141L50.3866 49.4111C49.289 49.4127 46.1576 49.3587 45.1551 49.4705C44.4998 49.5617 44.1186 49.6049 43.4841 49.8232ZM87.5738 48.6717L89.3447 48.6853C89.1416 48.3708 87.7161 47.7892 87.3357 47.7446C87.3928 48.1031 87.4651 48.324 87.5738 48.6717ZM34.2234 49.354C33.6907 49.3759 33.1578 49.3928 32.6248 49.4048C31.3294 49.4229 22.6927 49.237 22.1911 49.6866C22.4739 50.0165 23.1877 49.8794 23.6104 49.8785L29.6135 49.8945C31.084 49.8995 32.9864 50.1346 34.2234 49.354ZM87.8279 49.3747C87.8652 49.7237 87.8058 49.6252 88.0082 49.8139C88.5072 49.9631 91.3058 49.9295 91.8649 49.8589L91.871 49.6789C91.3096 49.333 88.6609 49.4345 87.8279 49.3747ZM86.8725 0.426995C86.3157 0.610299 86.0083 1.20711 86.1841 1.76687C86.359 2.32665 86.9516 2.64187 87.5145 2.47456C87.885 2.36422 88.1679 2.06269 88.2547 1.68542C88.3406 1.30815 88.2174 0.913712 87.9306 0.653083C87.6446 0.392455 87.2407 0.306065 86.8725 0.426995ZM96.4397 79.7569C96.0654 79.8284 95.7589 80.0953 95.6364 80.4565C95.5139 80.817 95.5946 81.2155 95.8479 81.4999C96.1012 81.7843 96.4884 81.9106 96.8611 81.8307C97.4278 81.709 97.7907 81.1539 97.6758 80.5858C97.5602 80.0177 97.0095 79.6482 96.4397 79.7569Z" fill="white"/>
<path id="Vector_2" d="M44.7477 9.54665C49.6666 9.17341 52.4733 11.7227 53.0199 16.5857C53.3901 19.8794 53.4079 24.3382 51.3593 27.172C50.2496 28.7069 48.5779 29.2454 46.7732 29.4606C41.91 29.8194 38.9678 27.6856 38.3444 22.7C37.9219 19.3201 37.9059 14.7503 40.0036 11.8439C41.1401 10.2691 42.9124 9.78232 44.7477 9.54665ZM46.5526 28.4126C51.4705 27.3055 50.5872 18.3314 50.0115 14.6033C49.5548 11.6459 47.687 10.3462 44.8045 10.6073C43.6983 10.9053 42.613 11.4718 42.1018 12.5757C40.5361 15.9573 40.7199 21.2196 41.4532 24.8037C42.0416 27.6795 43.9143 28.5476 46.5526 28.4126Z" fill="white"/>
<path id="Vector_3" d="M56.1749 9.7884C57.7629 9.73395 59.4799 9.75129 61.0709 9.77562C61.2606 10.4 61.5072 11.0697 61.7272 11.6871C63.4859 16.6223 65.0725 21.6463 66.8739 26.5632C67.481 24.5783 68.2622 22.4681 68.943 20.4909L72.6103 9.8033C73.5597 9.71669 75.1206 9.76825 76.1125 9.78399C75.9642 12.4864 76.0791 16.251 76.0768 19.0201C76.0745 22.1872 75.9551 26.136 76.0935 29.2486C75.2796 29.2485 74.4481 29.2378 73.6365 29.2831C73.6844 27.9686 73.6464 26.4157 73.6448 25.0809L73.6342 16.3365C73.6319 14.6113 73.5924 12.7505 73.6555 11.0352C73.5117 11.3421 73.3763 11.7585 73.2599 12.0858C71.9865 16.0974 70.4659 20.1284 69.1804 24.1452C68.6715 25.7346 67.9359 27.6485 67.5243 29.2342C66.8412 29.2836 65.9238 29.2574 65.2217 29.2558C64.0007 25.3838 62.5982 21.5094 61.3306 17.6475C60.621 15.4854 59.8213 13.3573 59.2551 11.1507C59.0858 12.4117 59.1318 13.8698 59.1344 15.1549L59.1449 20.5977L59.1293 26.0224C59.1265 26.9774 59.0848 28.3494 59.1743 29.2607C58.6411 29.242 58.1722 29.2567 57.6411 29.2742C57.7226 26.7176 57.9227 13.1055 57.3801 11.2606C56.4399 10.333 55.2329 10.5368 54.7657 10.0313L54.8313 9.91889C55.2515 9.75212 55.7191 9.78809 56.1749 9.7884Z" fill="white"/>
<path id="Vector_4" d="M13.1503 9.39808C15.815 9.24682 18.8977 9.74789 19.9051 12.6626C20.0096 12.9653 20.0978 13.2816 20.1978 13.5879L17.3706 13.5938C17.0192 12.2084 16.4841 11.0496 15.006 10.7453C9.46579 9.62455 8.83525 16.1775 9.21704 20.0505C9.58644 23.7971 10.6327 27.0818 14.7479 28.0597C16.8184 28.3451 18.1802 28.076 20.154 27.4822L20.1377 28.6038C16.9335 29.6161 12.6116 30.0705 9.87671 27.7534C7.72054 25.9284 6.60354 23.0113 6.42942 20.2314C6.10529 15.0583 6.99073 9.95885 13.1503 9.39808Z" fill="white"/>
<path id="Vector_5" d="M28.6687 9.54488C31.2524 9.33765 34.3416 9.78101 35.4813 12.4871C35.6468 12.8802 35.7424 13.2635 35.9217 13.672C35.0307 13.6263 33.9222 13.6664 32.989 13.6437C32.6594 11.7139 31.4938 10.667 29.5252 10.7119C25.0653 10.846 24.6703 16.2031 24.8527 19.5514C25.0498 23.1693 26.1756 27.2837 30.2786 28.1217C32.1848 28.5145 34.1019 28.1655 35.9051 27.5066C35.8572 27.9049 35.8549 28.3163 35.8443 28.7182C35.0961 28.9891 34.323 29.1857 33.5362 29.3053C31.0009 29.7136 28.1031 29.7436 25.8808 28.1044C21.4913 24.8665 20.8882 16.3711 23.7703 12.0183C24.8552 10.3797 26.7956 9.80915 28.6687 9.54488Z" fill="white"/>
<path id="Vector_6" d="M84.061 60.3018L84.1857 60.3434C84.3204 60.5497 84.2504 66.237 84.2694 67.0977C81.7972 67.116 79.1888 67.1657 76.7256 67.1008L76.5583 67.0805C76.3461 66.8163 76.4571 64.5259 76.4046 63.8945C79.2572 64.0946 81.8451 61.9806 84.061 60.3018Z" fill="white"/>
<path id="Vector_7" d="M68.371 60.2285C68.5825 60.3134 69.5326 61.0093 69.7676 61.175C71.7135 62.5481 73.6251 64.1732 76.1658 63.8931C76.1414 64.5282 76.2015 66.6119 76.1163 67.1321C73.5247 67.1016 70.933 67.0926 68.3413 67.1054C68.4029 65.5438 68.3139 63.8993 68.3299 62.3326C68.3352 61.8523 68.2782 60.6436 68.371 60.2285Z" fill="white"/>
<path id="Vector_8" d="M68.3451 59.1081C70.9482 59.0829 73.552 59.0771 76.1559 59.0905L76.1605 63.5751C73.5072 63.6848 72.0542 62.2117 69.9251 60.9124C69.3842 60.5827 68.1679 59.8198 68.3451 59.1081Z" fill="white"/>
<path id="Vector_9" d="M76.4335 59.0797C77.6202 59.0648 83.425 58.9687 84.2397 59.1962L84.2686 59.3924C84.0496 60.0282 82.7115 60.84 82.1121 61.25C79.9685 62.6122 79.0237 63.4988 76.4358 63.6152C76.4678 62.2182 76.4807 60.4611 76.4335 59.0797Z" fill="white"/>
<path id="Vector_10" d="M135.802 42.6606C135.835 42.6699 135.927 42.7351 135.961 42.7569C135.99 42.9224 136.025 43.1004 135.971 43.264C135.763 43.877 130.159 47.9536 129.251 48.5656C128.606 48.9999 127.932 49.3776 127.25 49.7488L127.447 49.8273C127.916 50.0102 128.531 50.3453 128.951 50.6468C131.23 52.2839 133.532 53.9442 135.716 55.7042C135.973 55.9117 136.087 56.4019 135.892 56.691C135.791 56.6828 134.864 55.9807 134.669 55.8477L131.127 53.1945C128.869 51.505 127.457 50.2508 124.61 49.7637C127.784 48.8521 128.832 47.941 131.449 45.9655L135.802 42.6606Z" fill="white"/>
<path id="Vector_11" d="M84.207 7.5027C84.5973 7.48665 86.0144 7.37319 86.2472 7.6881C85.8022 7.92643 84.8993 7.85434 84.3721 7.8478C84.4642 9.56958 84.4208 11.8768 84.3896 13.6108C84.7715 13.5939 85.1739 13.5206 85.469 13.7541L85.4143 13.8608C85.0925 13.9937 84.735 13.9254 84.3835 13.8914C84.4254 15.9241 84.4261 17.9573 84.3866 19.9901C84.7852 19.9592 85.2035 19.8732 85.5116 20.1308L85.4485 20.2452C85.1336 20.3879 84.754 20.3158 84.4033 20.2832V31.3645C84.4124 31.892 84.3767 32.4315 84.3508 32.9594C84.7844 32.9552 85.9939 32.8832 86.2807 33.1201C85.911 33.3373 84.6102 33.2782 84.0557 33.3374C83.8761 28.9428 84.0382 24.5495 84.0161 20.1693L84.0032 13.4999C83.9864 11.7228 83.9545 9.92328 84.0176 8.14606C84.0283 7.83198 84.0306 7.71996 84.207 7.5027Z" fill="white"/>
<path id="Vector_12" d="M78.6852 69.3713C79.1956 69.2957 80.3579 69.312 80.8265 69.5348C81.569 69.8875 81.1475 70.6701 80.8646 71.1994C80.9703 71.9036 81.5804 71.34 81.2137 72.8192C80.6881 73.4093 79.4375 73.2572 78.6593 73.2564C78.6 72.2579 78.6525 70.4031 78.6852 69.3713ZM80.6455 72.7264C81.3666 71.4062 80.0499 71.4245 79.1408 71.3857C79.1309 71.8693 79.1081 72.3986 79.1332 72.8785C79.5874 72.8732 80.2355 72.896 80.6455 72.7264ZM79.1233 71.0495L80.3024 71.0533C81.2753 70.3385 80.5785 69.8123 79.6414 69.7697C79.2884 69.8366 79.3477 69.7689 79.156 69.9971C79.0594 70.4267 79.1545 70.6229 79.1233 71.0495Z" fill="white"/>
<path id="Vector_13" d="M64.3688 54.4949C64.776 54.4961 65.2882 54.451 65.6401 54.6312L65.5996 54.7295C65.2366 54.8724 64.7646 54.829 64.3655 54.8221C64.246 60.7795 64.5091 66.8306 64.3629 72.7958C64.3571 73.0315 64.3467 73.1547 64.5122 73.3159C64.8562 73.3129 65.3834 73.268 65.6698 73.4414L65.5945 73.5213C65.1103 73.6734 64.5741 73.63 64.0625 73.6224C63.9976 69.3283 64.0769 64.8545 64.0713 60.5447L64.0485 56.7152C64.0447 56.1103 64.0304 55.4525 64.0722 54.8466C64.0868 54.6328 64.2114 54.5972 64.3688 54.4949Z" fill="white"/>
<path id="Vector_14" d="M71.6982 69.2466C72.5015 69.7431 70.9839 73.3272 73.298 72.8679C74.7638 72.5774 73.7513 70.0861 74.2709 69.309L74.3972 69.3219C74.6003 69.5822 74.5447 69.4584 74.5866 69.8062C74.5896 70.4899 74.6885 72.4025 74.2998 72.804C73.4539 73.6055 71.4738 73.5051 71.4982 71.9971C71.5081 71.3659 71.3377 69.6997 71.6982 69.2466Z" fill="white"/>
<path id="Vector_15" d="M76.607 70.5248C78.3178 70.3773 77.8439 73.1119 77.4361 73.2473C76.8884 72.4085 77.9298 71.1644 76.6754 70.845L76.5956 70.8252C75.2507 71.3689 76.2692 72.6077 75.7504 73.3043L75.6082 73.2982C75.3321 72.8366 75.4043 71.2229 75.5618 70.6777C75.5762 70.6275 75.577 70.6396 75.628 70.6465C76.0387 70.6997 76.2365 70.6982 76.607 70.5248Z" fill="white"/>
<g id="Group">
<path id="CENTRO" d="M96.2052 26.8848C95.1939 26.8848 94.406 26.6732 93.8416 26.2498C93.2889 25.8265 92.9009 25.2562 92.6774 24.5389C92.4658 23.8216 92.3599 23.0219 92.3599 22.14V17.0953C92.3599 16.131 92.4658 15.2903 92.6774 14.573C92.9009 13.8556 93.2889 13.303 93.8416 12.9149C94.406 12.5151 95.1939 12.3152 96.2052 12.3152C97.0989 12.3152 97.8044 12.4798 98.3218 12.8091C98.851 13.1383 99.2273 13.6087 99.4507 14.2202C99.6859 14.8317 99.8035 15.5666 99.8035 16.425V17.5539H97.9162V16.5485C97.9162 16.0193 97.8868 15.5548 97.828 15.155C97.7809 14.7435 97.6398 14.426 97.4046 14.2025C97.1694 13.9791 96.7755 13.8674 96.2228 13.8674C95.6584 13.8674 95.2468 13.9909 94.9881 14.2378C94.7294 14.473 94.5589 14.814 94.4766 15.2609C94.406 15.696 94.3708 16.2075 94.3708 16.7954V22.4575C94.3708 23.1748 94.4296 23.7451 94.5471 24.1685C94.6647 24.58 94.8588 24.874 95.1292 25.0504C95.3997 25.2268 95.7642 25.315 96.2228 25.315C96.7638 25.315 97.1518 25.1974 97.387 24.9622C97.6222 24.7153 97.7692 24.3801 97.828 23.9568C97.8868 23.5335 97.9162 23.0396 97.9162 22.4751V21.4168H99.8035V22.4751C99.8035 23.3453 99.6977 24.1155 99.486 24.7858C99.2743 25.4443 98.9098 25.9617 98.3924 26.338C97.875 26.7026 97.1459 26.8848 96.2052 26.8848ZM92.6245 52.7261V38.4387H98.1631V39.9203H94.6177V44.6475H97.4928V46.0586H94.6177V51.2973H98.1984V52.7261H92.6245ZM92.6245 78.7261V64.4387H93.9827L98.0396 73.9283V64.4387H99.6977V78.7261H98.4277L94.3178 68.9718V78.7261H92.6245ZM94.1944 104.726V91.9203H91.7779V90.4387H98.5335V91.9203H96.1876V104.726H94.1944ZM92.6245 130.726V116.439H95.4996C96.4521 116.439 97.24 116.568 97.8632 116.827C98.4865 117.074 98.9451 117.479 99.2391 118.044C99.5448 118.596 99.6977 119.326 99.6977 120.231C99.6977 120.784 99.6389 121.289 99.5213 121.748C99.4037 122.195 99.2155 122.577 98.9568 122.894C98.6981 123.2 98.3571 123.424 97.9338 123.565L99.9622 130.726H98.0396L96.1699 124.023H94.6177V130.726H92.6245ZM94.6177 122.595H95.3762C95.9406 122.595 96.3992 122.524 96.752 122.383C97.1048 122.242 97.3635 122.001 97.5281 121.66C97.6927 121.319 97.775 120.842 97.775 120.231C97.775 119.396 97.6222 118.796 97.3164 118.432C97.0107 118.056 96.4051 117.867 95.4996 117.867H94.6177V122.595ZM96.2757 156.885C95.3115 156.885 94.5413 156.697 93.9651 156.32C93.3889 155.944 92.9773 155.409 92.7304 154.715C92.4834 154.01 92.3599 153.187 92.3599 152.246V146.831C92.3599 145.89 92.4834 145.084 92.7304 144.414C92.9891 143.732 93.4006 143.215 93.9651 142.862C94.5413 142.497 95.3115 142.315 96.2757 142.315C97.24 142.315 98.0043 142.497 98.5688 142.862C99.1332 143.227 99.5389 143.744 99.7859 144.414C100.045 145.084 100.174 145.89 100.174 146.831V152.263C100.174 153.192 100.045 154.004 99.7859 154.698C99.5389 155.391 99.1332 155.932 98.5688 156.32C98.0043 156.697 97.24 156.885 96.2757 156.885ZM96.2757 155.315C96.8049 155.315 97.2047 155.209 97.4752 154.997C97.7456 154.774 97.9279 154.468 98.022 154.08C98.1161 153.68 98.1631 153.216 98.1631 152.687V146.425C98.1631 145.896 98.1161 145.443 98.022 145.067C97.9279 144.679 97.7456 144.385 97.4752 144.185C97.2047 143.973 96.8049 143.867 96.2757 143.867C95.7466 143.867 95.3409 143.973 95.0587 144.185C94.7882 144.385 94.6059 144.679 94.5119 145.067C94.4178 145.443 94.3708 145.896 94.3708 146.425V152.687C94.3708 153.216 94.4178 153.68 94.5119 154.08C94.6059 154.468 94.7882 154.774 95.0587 154.997C95.3409 155.209 95.7466 155.315 96.2757 155.315Z" fill="white"/>
<path id="DE POL&#195;&#141;TICAS," d="M92.6245 31.8228V17.5353H95.7289C96.7872 17.5353 97.6221 17.7 98.2336 18.0292C98.8569 18.3467 99.2978 18.8289 99.5565 19.4756C99.827 20.1224 99.9622 20.9279 99.9622 21.8921V27.1485C99.9622 28.1598 99.827 29.0123 99.5565 29.7061C99.2978 30.3999 98.8686 30.9291 98.2689 31.2936C97.6809 31.6464 96.8872 31.8228 95.8877 31.8228H92.6245ZM94.6177 30.394H95.7466C96.4756 30.394 96.993 30.2529 97.2988 29.9707C97.6045 29.6885 97.7868 29.2769 97.8456 28.736C97.9161 28.195 97.9514 27.5424 97.9514 26.7781V22.1391C97.9514 21.3982 97.9044 20.7985 97.8103 20.3399C97.7162 19.8813 97.5104 19.5462 97.1929 19.3345C96.8754 19.1228 96.3757 19.017 95.6936 19.017H94.6177V30.394ZM101.926 31.8228V17.5353H107.465V19.017H103.919V23.7442H106.794V25.1553H103.919V30.394H107.5V31.8228H101.926ZM92.6245 57.8228V43.5353H96.1699C97.0283 43.5353 97.7103 43.6941 98.216 44.0116C98.7334 44.3173 99.1097 44.7642 99.3449 45.3521C99.58 45.9401 99.6976 46.6515 99.6976 47.4864C99.6976 48.239 99.5624 48.8917 99.2919 49.4443C99.0332 49.997 98.6452 50.4262 98.1278 50.732C97.6104 51.0259 96.9636 51.1729 96.1875 51.1729H94.6177V57.8228H92.6245ZM94.6177 49.7442H95.5349C96.1111 49.7442 96.5638 49.6795 96.8931 49.5502C97.2223 49.4208 97.4575 49.1974 97.5986 48.8799C97.7397 48.5506 97.8103 48.092 97.8103 47.5041C97.8103 46.822 97.7574 46.2988 97.6515 45.9342C97.5575 45.5697 97.3517 45.3169 97.0342 45.1758C96.7167 45.0346 96.2228 44.9641 95.5525 44.9641H94.6177V49.7442ZM104.751 57.9815C103.786 57.9815 103.016 57.7934 102.44 57.4171C101.864 57.0408 101.452 56.5057 101.205 55.8119C100.958 55.1064 100.835 54.2832 100.835 53.3425V47.9274C100.835 46.9867 100.958 46.1812 101.205 45.5109C101.464 44.8289 101.875 44.3115 102.44 43.9587C103.016 43.5941 103.786 43.4119 104.751 43.4119C105.715 43.4119 106.479 43.5941 107.044 43.9587C107.608 44.3232 108.014 44.8406 108.261 45.5109C108.519 46.1812 108.649 46.9867 108.649 47.9274V53.3601C108.649 54.2891 108.519 55.1005 108.261 55.7943C108.014 56.4881 107.608 57.029 107.044 57.4171C106.479 57.7934 105.715 57.9815 104.751 57.9815ZM104.751 56.4117C105.28 56.4117 105.68 56.3058 105.95 56.0942C106.22 55.8707 106.403 55.565 106.497 55.1769C106.591 54.7771 106.638 54.3126 106.638 53.7835V47.5217C106.638 46.9925 106.591 46.5398 106.497 46.1635C106.403 45.7755 106.22 45.4815 105.95 45.2816C105.68 45.0699 105.28 44.9641 104.751 44.9641C104.221 44.9641 103.816 45.0699 103.534 45.2816C103.263 45.4815 103.081 45.7755 102.987 46.1635C102.893 46.5398 102.846 46.9925 102.846 47.5217V53.7835C102.846 54.3126 102.893 54.7771 102.987 55.1769C103.081 55.565 103.263 55.8707 103.534 56.0942C103.816 56.3058 104.221 56.4117 104.751 56.4117ZM110.608 57.8228V43.5353H112.601V56.394H116.252V57.8228H110.608ZM92.7303 83.8228V69.5353H94.6882V83.8228H92.7303ZM93.2066 68.6887L94.2473 65.1962H96.1346L94.1591 68.6887H93.2066ZM98.5696 83.8228V71.017H96.1531V69.5353H102.909V71.017H100.563V83.8228H98.5696ZM104.392 83.8228V69.5353H106.35V83.8228H104.392ZM112.242 83.9815C111.231 83.9815 110.443 83.7698 109.878 83.3465C109.326 82.9232 108.938 82.3529 108.714 81.6355C108.503 80.9182 108.397 80.1186 108.397 79.2367V74.192C108.397 73.2277 108.503 72.3869 108.714 71.6696C108.938 70.9523 109.326 70.3996 109.878 70.0116C110.443 69.6118 111.231 69.4119 112.242 69.4119C113.136 69.4119 113.841 69.5765 114.359 69.9058C114.888 70.235 115.264 70.7054 115.488 71.3169C115.723 71.9283 115.84 72.6633 115.84 73.5217V74.6506H113.953V73.6452C113.953 73.116 113.924 72.6515 113.865 72.2517C113.818 71.8401 113.677 71.5226 113.441 71.2992C113.206 71.0758 112.812 70.9641 112.26 70.9641C111.695 70.9641 111.284 71.0876 111.025 71.3345C110.766 71.5697 110.596 71.9107 110.513 72.3575C110.443 72.7926 110.408 73.3042 110.408 73.8921V79.5542C110.408 80.2715 110.466 80.8418 110.584 81.2651C110.702 81.6767 110.896 81.9707 111.166 82.1471C111.436 82.3235 111.801 82.4117 112.26 82.4117C112.801 82.4117 113.189 82.2941 113.424 82.0589C113.659 81.8119 113.806 81.4768 113.865 81.0535C113.924 80.6301 113.953 80.1362 113.953 79.5718V78.5135H115.84V79.5718C115.84 80.442 115.734 81.2122 115.523 81.8825C115.311 82.541 114.947 83.0584 114.429 83.4347C113.912 83.7992 113.183 83.9815 112.242 83.9815ZM91.8484 109.823L94.8823 95.5353H96.8049L99.8564 109.823H97.969L97.3164 106.224H94.406L93.7181 109.823H91.8484ZM94.6706 104.796H97.0518L95.8524 98.3575L94.6706 104.796ZM104.623 109.982C103.8 109.982 103.112 109.805 102.56 109.452C102.019 109.1 101.607 108.612 101.325 107.988C101.043 107.365 100.878 106.642 100.831 105.819L102.595 105.343C102.63 105.848 102.707 106.336 102.824 106.807C102.954 107.277 103.159 107.665 103.442 107.971C103.724 108.265 104.118 108.412 104.623 108.412C105.141 108.412 105.529 108.271 105.788 107.988C106.058 107.694 106.193 107.277 106.193 106.736C106.193 106.089 106.046 105.572 105.752 105.184C105.458 104.784 105.088 104.384 104.641 103.984L102.242 101.868C101.772 101.456 101.425 101.009 101.201 100.527C100.978 100.033 100.866 99.4276 100.866 98.7103C100.866 97.6638 101.166 96.8524 101.766 96.2762C102.366 95.7 103.183 95.4119 104.218 95.4119C104.782 95.4119 105.276 95.4883 105.699 95.6412C106.134 95.7823 106.493 96.0057 106.775 96.3115C107.069 96.6172 107.299 97.0052 107.463 97.4756C107.64 97.9342 107.757 98.4751 107.816 99.0984L106.123 99.557C106.087 99.0866 106.017 98.6574 105.911 98.2694C105.805 97.8695 105.617 97.552 105.347 97.3169C105.088 97.0699 104.712 96.9464 104.218 96.9464C103.724 96.9464 103.336 97.0817 103.054 97.3521C102.783 97.6108 102.648 97.9989 102.648 98.5163C102.648 98.9514 102.718 99.31 102.86 99.5923C103.012 99.8745 103.253 100.163 103.583 100.457L105.999 102.573C106.54 103.044 107.016 103.608 107.428 104.267C107.84 104.913 108.045 105.684 108.045 106.577C108.045 107.283 107.898 107.894 107.604 108.412C107.31 108.917 106.905 109.305 106.387 109.576C105.882 109.846 105.294 109.982 104.623 109.982ZM109.486 112.133L109.186 111.322C109.503 111.216 109.75 111.028 109.927 110.758C110.115 110.499 110.209 110.187 110.209 109.823H109.203V107.794H111.144V109.787C111.144 110.411 111.008 110.905 110.738 111.269C110.468 111.645 110.05 111.934 109.486 112.133Z" fill="white"/>
<path id="DIREITO, ECONOMIA" d="M92.6245 37.3975V23.1101H95.7289C96.7872 23.1101 97.6221 23.2747 98.2336 23.6039C98.8569 23.9214 99.2978 24.4036 99.5565 25.0503C99.827 25.6971 99.9622 26.5026 99.9622 27.4668V32.7232C99.9622 33.7345 99.827 34.587 99.5565 35.2808C99.2978 35.9746 98.8686 36.5038 98.2689 36.8683C97.6809 37.2211 96.8872 37.3975 95.8877 37.3975H92.6245ZM94.6177 35.9687H95.7466C96.4756 35.9687 96.993 35.8276 97.2988 35.5454C97.6045 35.2632 97.7868 34.8516 97.8456 34.3107C97.9161 33.7698 97.9514 33.1171 97.9514 32.3528V27.7138C97.9514 26.9729 97.9044 26.3732 97.8103 25.9146C97.7162 25.456 97.5104 25.1209 97.1929 24.9092C96.8754 24.6975 96.3757 24.5917 95.6936 24.5917H94.6177V35.9687ZM102.032 37.3975V23.1101H103.99V37.3975H102.032ZM106.301 37.3975V23.1101H109.177C110.129 23.1101 110.917 23.2394 111.54 23.4981C112.163 23.745 112.622 24.1507 112.916 24.7152C113.222 25.2679 113.375 25.9969 113.375 26.9024C113.375 27.4551 113.316 27.9607 113.198 28.4193C113.081 28.8662 112.892 29.2483 112.634 29.5658C112.375 29.8716 112.034 30.095 111.611 30.2361L113.639 37.3975H111.717L109.847 30.6947H108.295V37.3975H106.301ZM108.295 29.266H109.053C109.618 29.266 110.076 29.1954 110.429 29.0543C110.782 28.9132 111.04 28.6721 111.205 28.3311C111.37 27.9901 111.452 27.5139 111.452 26.9024C111.452 26.0675 111.299 25.4678 110.993 25.1032C110.688 24.7269 110.082 24.5388 109.177 24.5388H108.295V29.266ZM115.448 37.3975V23.1101H120.987V24.5917H117.441V29.3189H120.316V30.73H117.441V35.9687H121.022V37.3975H115.448ZM122.737 37.3975V23.1101H124.695V37.3975H122.737ZM94.1943 63.3975V50.5917H91.7778V49.1101H98.5335V50.5917H96.1875V63.3975H94.1943ZM103.51 63.5562C102.546 63.5562 101.776 63.3681 101.2 62.9918C100.623 62.6155 100.212 62.0804 99.965 61.3866C99.718 60.6811 99.5946 59.8579 99.5946 58.9172V53.5021C99.5946 52.5614 99.718 51.7559 99.965 51.0856C100.224 50.4036 100.635 49.8862 101.2 49.5334C101.776 49.1688 102.546 48.9866 103.51 48.9866C104.475 48.9866 105.239 49.1688 105.803 49.5334C106.368 49.8979 106.774 50.4153 107.02 51.0856C107.279 51.7559 107.409 52.5614 107.409 53.5021V58.9349C107.409 59.8638 107.279 60.6752 107.02 61.369C106.774 62.0628 106.368 62.6037 105.803 62.9918C105.239 63.3681 104.475 63.5562 103.51 63.5562ZM103.51 61.9864C104.04 61.9864 104.439 61.8805 104.71 61.6689C104.98 61.4454 105.163 61.1397 105.257 60.7516C105.351 60.3518 105.398 59.8873 105.398 59.3582V53.0964C105.398 52.5673 105.351 52.1145 105.257 51.7382C105.163 51.3502 104.98 51.0562 104.71 50.8563C104.439 50.6446 104.04 50.5388 103.51 50.5388C102.981 50.5388 102.576 50.6446 102.293 50.8563C102.023 51.0562 101.841 51.3502 101.746 51.7382C101.652 52.1145 101.605 52.5673 101.605 53.0964V59.3582C101.605 59.8873 101.652 60.3518 101.746 60.7516C101.841 61.1397 102.023 61.4454 102.293 61.6689C102.576 61.8805 102.981 61.9864 103.51 61.9864ZM109.141 65.7081L108.841 64.8968C109.159 64.7909 109.406 64.6028 109.582 64.3323C109.77 64.0736 109.864 63.762 109.864 63.3975H108.859V61.369H110.799V63.3622C110.799 63.9854 110.664 64.4793 110.393 64.8438C110.123 65.2201 109.706 65.5082 109.141 65.7081ZM92.6245 89.3975V75.1101H98.1631V76.5917H94.6177V81.3189H97.4928V82.73H94.6177V87.9687H98.1983V89.3975H92.6245ZM103.388 89.5562C102.377 89.5562 101.589 89.3445 101.025 88.9212C100.472 88.4979 100.084 87.9276 99.8604 87.2103C99.6487 86.4929 99.5429 85.6933 99.5429 84.8114V79.7667C99.5429 78.8024 99.6487 77.9617 99.8604 77.2443C100.084 76.527 100.472 75.9744 101.025 75.5863C101.589 75.1865 102.377 74.9866 103.388 74.9866C104.282 74.9866 104.987 75.1512 105.505 75.4805C106.034 75.8097 106.41 76.2801 106.634 76.8916C106.869 77.503 106.986 78.238 106.986 79.0964V80.2253H105.099V79.2199C105.099 78.6907 105.07 78.2262 105.011 77.8264C104.964 77.4149 104.823 77.0974 104.588 76.8739C104.352 76.6505 103.958 76.5388 103.406 76.5388C102.841 76.5388 102.43 76.6623 102.171 76.9092C101.912 77.1444 101.742 77.4854 101.66 77.9323C101.589 78.3673 101.554 78.8789 101.554 79.4668V85.1289C101.554 85.8462 101.612 86.4165 101.73 86.8398C101.848 87.2514 102.042 87.5454 102.312 87.7218C102.583 87.8982 102.947 87.9864 103.406 87.9864C103.947 87.9864 104.335 87.8688 104.57 87.6336C104.805 87.3866 104.952 87.0515 105.011 86.6282C105.07 86.2048 105.099 85.711 105.099 85.1465V84.0882H106.986V85.1465C106.986 86.0167 106.881 86.7869 106.669 87.4572C106.457 88.1157 106.093 88.6331 105.575 89.0094C105.058 89.3739 104.329 89.5562 103.388 89.5562ZM112.536 89.5562C111.572 89.5562 110.802 89.3681 110.226 88.9918C109.65 88.6155 109.238 88.0804 108.991 87.3866C108.744 86.6811 108.621 85.8579 108.621 84.9172V79.5021C108.621 78.5614 108.744 77.7559 108.991 77.0856C109.25 76.4036 109.661 75.8862 110.226 75.5334C110.802 75.1688 111.572 74.9866 112.536 74.9866C113.501 74.9866 114.265 75.1688 114.83 75.5334C115.394 75.8979 115.8 76.4153 116.047 77.0856C116.305 77.7559 116.435 78.5614 116.435 79.5021V84.9349C116.435 85.8638 116.305 86.6752 116.047 87.369C115.8 88.0628 115.394 88.6037 114.83 88.9918C114.265 89.3681 113.501 89.5562 112.536 89.5562ZM112.536 87.9864C113.066 87.9864 113.465 87.8805 113.736 87.6689C114.006 87.4454 114.189 87.1397 114.283 86.7516C114.377 86.3518 114.424 85.8873 114.424 85.3582V79.0964C114.424 78.5673 114.377 78.1145 114.283 77.7382C114.189 77.3502 114.006 77.0562 113.736 76.8563C113.465 76.6446 113.066 76.5388 112.536 76.5388C112.007 76.5388 111.602 76.6446 111.319 76.8563C111.049 77.0562 110.867 77.3502 110.773 77.7382C110.679 78.1145 110.631 78.5673 110.631 79.0964V85.3582C110.631 85.8873 110.679 86.3518 110.773 86.7516C110.867 87.1397 111.049 87.4454 111.319 87.6689C111.602 87.8805 112.007 87.9864 112.536 87.9864ZM118.394 89.3975V75.1101H119.752L123.809 84.5997V75.1101H125.467V89.3975H124.197L120.087 79.6432V89.3975H118.394ZM96.2757 115.556C95.3115 115.556 94.5412 115.368 93.965 114.992C93.3888 114.615 92.9773 114.08 92.7303 113.387C92.4834 112.681 92.3599 111.858 92.3599 110.917V105.502C92.3599 104.561 92.4834 103.756 92.7303 103.086C92.989 102.404 93.4006 101.886 93.965 101.533C94.5412 101.169 95.3115 100.987 96.2757 100.987C97.24 100.987 98.0043 101.169 98.5688 101.533C99.1332 101.898 99.5389 102.415 99.7858 103.086C100.045 103.756 100.174 104.561 100.174 105.502V110.935C100.174 111.864 100.045 112.675 99.7858 113.369C99.5389 114.063 99.1332 114.604 98.5688 114.992C98.0043 115.368 97.24 115.556 96.2757 115.556ZM96.2757 113.986C96.8049 113.986 97.2047 113.881 97.4752 113.669C97.7456 113.445 97.9279 113.14 98.022 112.752C98.116 112.352 98.1631 111.887 98.1631 111.358V105.096C98.1631 104.567 98.116 104.115 98.022 103.738C97.9279 103.35 97.7456 103.056 97.4752 102.856C97.2047 102.645 96.8049 102.539 96.2757 102.539C95.7466 102.539 95.3409 102.645 95.0586 102.856C94.7882 103.056 94.6059 103.35 94.5118 103.738C94.4178 104.115 94.3707 104.567 94.3707 105.096V111.358C94.3707 111.887 94.4178 112.352 94.5118 112.752C94.6059 113.14 94.7882 113.445 95.0586 113.669C95.3409 113.881 95.7466 113.986 96.2757 113.986ZM102.098 115.397L102.362 101.11H104.32L106.842 112.699L109.382 101.11H111.323L111.587 115.397H109.982L109.823 105.026L107.407 115.397H106.278L103.879 105.026L103.72 115.397H102.098ZM113.883 115.397V101.11H115.841V115.397H113.883ZM117.376 115.397L120.41 101.11H122.333L125.384 115.397H123.497L122.844 111.799H119.934L119.246 115.397H117.376ZM120.199 110.37H122.58L121.38 103.932L120.199 110.37Z" fill="white"/>
<path id="E TECNOLOGIA DAS" d="M92.6245 42.813V28.5256H98.1631V30.0072H94.6177V34.7344H97.4928V36.1455H94.6177V41.3842H98.1983V42.813H92.6245ZM94.1943 68.813V56.0072H91.7778V54.5256H98.5335V56.0072H96.1875V68.813H94.1943ZM99.9108 68.813V54.5256H105.449V56.0072H101.904V60.7344H104.779V62.1455H101.904V67.3842H105.485V68.813H99.9108ZM110.674 68.9717C109.663 68.9717 108.875 68.7601 108.311 68.3367C107.758 67.9134 107.37 67.3431 107.147 66.6258C106.935 65.9085 106.829 65.1088 106.829 64.2269V59.1822C106.829 58.218 106.935 57.3772 107.147 56.6599C107.37 55.9426 107.758 55.3899 108.311 55.0018C108.875 54.602 109.663 54.4021 110.674 54.4021C111.568 54.4021 112.274 54.5667 112.791 54.896C113.32 55.2253 113.697 55.6956 113.92 56.3071C114.155 56.9186 114.273 57.6535 114.273 58.5119V59.6408H112.385V58.6354C112.385 58.1063 112.356 57.6418 112.297 57.242C112.25 56.8304 112.109 56.5129 111.874 56.2895C111.639 56.066 111.245 55.9543 110.692 55.9543C110.128 55.9543 109.716 56.0778 109.457 56.3247C109.199 56.5599 109.028 56.9009 108.946 57.3478C108.875 57.7829 108.84 58.2944 108.84 58.8824V64.5444C108.84 65.2617 108.899 65.832 109.016 66.2554C109.134 66.6669 109.328 66.9609 109.599 67.1373C109.869 67.3137 110.233 67.4019 110.692 67.4019C111.233 67.4019 111.621 67.2843 111.856 67.0491C112.091 66.8022 112.238 66.467 112.297 66.0437C112.356 65.6204 112.385 65.1265 112.385 64.562V63.5037H114.273V64.562C114.273 65.4322 114.167 66.2024 113.955 66.8727C113.744 67.5312 113.379 68.0486 112.862 68.4249C112.344 68.7895 111.615 68.9717 110.674 68.9717ZM116.172 68.813V54.5256H117.53L121.587 64.0152V54.5256H123.245V68.813H121.975L117.865 59.0587V68.813H116.172ZM96.2757 94.9717C95.3115 94.9717 94.5412 94.7836 93.965 94.4073C93.3888 94.031 92.9773 93.496 92.7303 92.8022C92.4834 92.0966 92.3599 91.2735 92.3599 90.3327V84.9176C92.3599 83.9769 92.4834 83.1714 92.7303 82.5011C92.989 81.8191 93.4006 81.3017 93.965 80.9489C94.5412 80.5844 95.3115 80.4021 96.2757 80.4021C97.24 80.4021 98.0043 80.5844 98.5688 80.9489C99.1332 81.3134 99.5389 81.8308 99.7858 82.5011C100.045 83.1714 100.174 83.9769 100.174 84.9176V90.3504C100.174 91.2794 100.045 92.0907 99.7858 92.7845C99.5389 93.4783 99.1332 94.0192 98.5688 94.4073C98.0043 94.7836 97.24 94.9717 96.2757 94.9717ZM96.2757 93.4019C96.8049 93.4019 97.2047 93.2961 97.4752 93.0844C97.7456 92.861 97.9279 92.5552 98.022 92.1672C98.116 91.7674 98.1631 91.3029 98.1631 90.7737V84.5119C98.1631 83.9828 98.116 83.5301 98.022 83.1538C97.9279 82.7657 97.7456 82.4717 97.4752 82.2718C97.2047 82.0602 96.8049 81.9543 96.2757 81.9543C95.7466 81.9543 95.3409 82.0602 95.0586 82.2718C94.7882 82.4717 94.6059 82.7657 94.5118 83.1538C94.4178 83.5301 94.3707 83.9828 94.3707 84.5119V90.7737C94.3707 91.3029 94.4178 91.7674 94.5118 92.1672C94.6059 92.5552 94.7882 92.861 95.0586 93.0844C95.3409 93.2961 95.7466 93.4019 96.2757 93.4019ZM102.133 94.813V80.5256H104.126V93.3842H107.777V94.813H102.133ZM112.691 94.9717C111.727 94.9717 110.957 94.7836 110.381 94.4073C109.805 94.031 109.393 93.496 109.146 92.8022C108.899 92.0966 108.776 91.2735 108.776 90.3327V84.9176C108.776 83.9769 108.899 83.1714 109.146 82.5011C109.405 81.8191 109.816 81.3017 110.381 80.9489C110.957 80.5844 111.727 80.4021 112.691 80.4021C113.656 80.4021 114.42 80.5844 114.985 80.9489C115.549 81.3134 115.955 81.8308 116.202 82.5011C116.46 83.1714 116.59 83.9769 116.59 84.9176V90.3504C116.59 91.2794 116.46 92.0907 116.202 92.7845C115.955 93.4783 115.549 94.0192 114.985 94.4073C114.42 94.7836 113.656 94.9717 112.691 94.9717ZM112.691 93.4019C113.221 93.4019 113.62 93.2961 113.891 93.0844C114.161 92.861 114.344 92.5552 114.438 92.1672C114.532 91.7674 114.579 91.3029 114.579 90.7737V84.5119C114.579 83.9828 114.532 83.5301 114.438 83.1538C114.344 82.7657 114.161 82.4717 113.891 82.2718C113.62 82.0602 113.221 81.9543 112.691 81.9543C112.162 81.9543 111.757 82.0602 111.474 82.2718C111.204 82.4717 111.022 82.7657 110.928 83.1538C110.834 83.5301 110.786 83.9828 110.786 84.5119V90.7737C110.786 91.3029 110.834 91.7674 110.928 92.1672C111.022 92.5552 111.204 92.861 111.474 93.0844C111.757 93.2961 112.162 93.4019 112.691 93.4019ZM96.0288 120.989C95.1351 120.989 94.4178 120.801 93.8768 120.425C93.3477 120.037 92.9596 119.478 92.7127 118.749C92.4775 118.02 92.3599 117.144 92.3599 116.121V111.341C92.3599 110.294 92.4657 109.407 92.6774 108.678C92.9008 107.937 93.2889 107.372 93.8416 106.984C94.406 106.596 95.188 106.402 96.1875 106.402C97.0812 106.402 97.7985 106.555 98.3395 106.861C98.8921 107.155 99.2919 107.613 99.5389 108.237C99.7858 108.848 99.9093 109.624 99.9093 110.565V111.094H98.0396V110.653C98.0396 110.03 97.9984 109.524 97.9161 109.136C97.8338 108.736 97.6633 108.442 97.4046 108.254C97.1577 108.054 96.7637 107.954 96.2228 107.954C95.6348 107.954 95.2056 108.09 94.9352 108.36C94.6765 108.63 94.5118 109.001 94.4413 109.471C94.3825 109.93 94.3531 110.453 94.3531 111.041V116.333C94.3531 117.015 94.4001 117.585 94.4942 118.044C94.6 118.502 94.7941 118.843 95.0763 119.067C95.3585 119.29 95.7583 119.402 96.2757 119.402C96.7931 119.402 97.1929 119.278 97.4752 119.031C97.7574 118.785 97.9514 118.42 98.0572 117.938C98.1631 117.456 98.216 116.856 98.216 116.139V115.151H96.3992V113.74H100.015V120.813H98.7628L98.5688 119.173C98.3806 119.702 98.0866 120.137 97.6868 120.478C97.287 120.819 96.7343 120.989 96.0288 120.989ZM102.17 120.813V106.526H104.128V120.813H102.17ZM105.663 120.813L108.697 106.526H110.62L113.671 120.813H111.784L111.131 117.215H108.221L107.533 120.813H105.663ZM108.485 115.786H110.867L109.667 109.348L108.485 115.786ZM92.6245 146.813V132.526H95.7289C96.7872 132.526 97.6221 132.69 98.2336 133.019C98.8569 133.337 99.2978 133.819 99.5565 134.466C99.827 135.113 99.9622 135.918 99.9622 136.882V142.139C99.9622 143.15 99.827 144.003 99.5565 144.696C99.2978 145.39 98.8686 145.919 98.2689 146.284C97.6809 146.637 96.8872 146.813 95.8877 146.813H92.6245ZM94.6177 145.384H95.7466C96.4756 145.384 96.993 145.243 97.2988 144.961C97.6045 144.679 97.7868 144.267 97.8456 143.726C97.9161 143.185 97.9514 142.533 97.9514 141.768V137.129C97.9514 136.388 97.9044 135.789 97.8103 135.33C97.7162 134.872 97.5104 134.536 97.1929 134.325C96.8754 134.113 96.3757 134.007 95.6936 134.007H94.6177V145.384ZM101.064 146.813L104.098 132.526H106.02L109.072 146.813H107.185L106.532 143.215H103.622L102.934 146.813H101.064ZM103.886 141.786H106.267L105.068 135.348L103.886 141.786ZM113.839 146.972C113.016 146.972 112.328 146.795 111.775 146.443C111.234 146.09 110.823 145.602 110.541 144.979C110.258 144.355 110.094 143.632 110.047 142.809L111.811 142.333C111.846 142.838 111.922 143.326 112.04 143.797C112.169 144.267 112.375 144.655 112.657 144.961C112.939 145.255 113.333 145.402 113.839 145.402C114.356 145.402 114.744 145.261 115.003 144.979C115.274 144.685 115.409 144.267 115.409 143.726C115.409 143.079 115.262 142.562 114.968 142.174C114.674 141.774 114.303 141.374 113.857 140.975L111.458 138.858C110.987 138.446 110.64 137.999 110.417 137.517C110.194 137.023 110.082 136.418 110.082 135.701C110.082 134.654 110.382 133.843 110.981 133.266C111.581 132.69 112.398 132.402 113.433 132.402C113.998 132.402 114.492 132.479 114.915 132.631C115.35 132.773 115.709 132.996 115.991 133.302C116.285 133.607 116.514 133.995 116.679 134.466C116.855 134.924 116.973 135.465 117.032 136.089L115.338 136.547C115.303 136.077 115.232 135.648 115.127 135.26C115.021 134.86 114.833 134.542 114.562 134.307C114.303 134.06 113.927 133.937 113.433 133.937C112.939 133.937 112.551 134.072 112.269 134.342C111.999 134.601 111.863 134.989 111.863 135.507C111.863 135.942 111.934 136.3 112.075 136.582C112.228 136.865 112.469 137.153 112.798 137.447L115.215 139.563C115.756 140.034 116.232 140.598 116.644 141.257C117.055 141.904 117.261 142.674 117.261 143.567C117.261 144.273 117.114 144.884 116.82 145.402C116.526 145.908 116.12 146.296 115.603 146.566C115.097 146.837 114.509 146.972 113.839 146.972Z" fill="white"/>
<path id="COMUNICA&#195;&#135;&#195;&#149;ES" d="M96.2052 48.3873C95.1939 48.3873 94.406 48.1756 93.8416 47.7523C93.2889 47.3289 92.9008 46.7586 92.6774 46.0413C92.4657 45.324 92.3599 44.5244 92.3599 43.6424V38.5977C92.3599 37.6335 92.4657 36.7927 92.6774 36.0754C92.9008 35.3581 93.2889 34.8054 93.8416 34.4174C94.406 34.0175 95.1939 33.8176 96.2052 33.8176C97.0989 33.8176 97.8044 33.9823 98.3218 34.3115C98.851 34.6408 99.2273 35.1111 99.4507 35.7226C99.6859 36.3341 99.8035 37.0691 99.8035 37.9275V39.0564H97.9161V38.0509C97.9161 37.5218 97.8867 37.0573 97.8279 36.6575C97.7809 36.2459 97.6398 35.9284 97.4046 35.705C97.1694 35.4816 96.7755 35.3698 96.2228 35.3698C95.6584 35.3698 95.2468 35.4933 94.9881 35.7403C94.7294 35.9754 94.5589 36.3165 94.4766 36.7633C94.406 37.1984 94.3707 37.7099 94.3707 38.2979V43.9599C94.3707 44.6772 94.4295 45.2476 94.5471 45.6709C94.6647 46.0825 94.8587 46.3764 95.1292 46.5528C95.3997 46.7292 95.7642 46.8174 96.2228 46.8174C96.7637 46.8174 97.1518 46.6998 97.387 46.4646C97.6221 46.2177 97.7691 45.8826 97.8279 45.4592C97.8867 45.0359 97.9161 44.542 97.9161 43.9776V42.9192H99.8035V43.9776C99.8035 44.8478 99.6976 45.618 99.486 46.2883C99.2743 46.9468 98.9098 47.4642 98.3924 47.8405C97.875 48.205 97.1459 48.3873 96.2052 48.3873ZM105.353 48.3873C104.389 48.3873 103.619 48.1991 103.043 47.8228C102.467 47.4465 102.055 46.9115 101.808 46.2177C101.561 45.5121 101.438 44.689 101.438 43.7483V38.3332C101.438 37.3924 101.561 36.5869 101.808 35.9167C102.067 35.2346 102.478 34.7172 103.043 34.3644C103.619 33.9999 104.389 33.8176 105.353 33.8176C106.318 33.8176 107.082 33.9999 107.647 34.3644C108.211 34.729 108.617 35.2464 108.864 35.9167C109.122 36.5869 109.252 37.3924 109.252 38.3332V43.7659C109.252 44.6949 109.122 45.5063 108.864 46.2001C108.617 46.8938 108.211 47.4348 107.647 47.8228C107.082 48.1991 106.318 48.3873 105.353 48.3873ZM105.353 46.8174C105.883 46.8174 106.282 46.7116 106.553 46.4999C106.823 46.2765 107.006 45.9708 107.1 45.5827C107.194 45.1829 107.241 44.7184 107.241 44.1892V37.9275C107.241 37.3983 107.194 36.9456 107.1 36.5693C107.006 36.1812 106.823 35.8873 106.553 35.6873C106.282 35.4757 105.883 35.3698 105.353 35.3698C104.824 35.3698 104.419 35.4757 104.136 35.6873C103.866 35.8873 103.684 36.1812 103.59 36.5693C103.496 36.9456 103.448 37.3983 103.448 37.9275V44.1892C103.448 44.7184 103.496 45.1829 103.59 45.5827C103.684 45.9708 103.866 46.2765 104.136 46.4999C104.419 46.7116 104.824 46.8174 105.353 46.8174ZM111.175 48.2285L111.44 33.9411H113.398L115.92 45.5298L118.46 33.9411H120.4L120.665 48.2285H119.06L118.901 37.8569L116.485 48.2285H115.356L112.957 37.8569L112.798 48.2285H111.175ZM96.311 74.3873C95.2762 74.3873 94.4824 74.1815 93.9298 73.7699C93.3771 73.3583 93.0008 72.7821 92.8009 72.0413C92.601 71.2887 92.501 70.4127 92.501 69.4131V59.9411H94.406V69.5013C94.406 70.1128 94.4472 70.6714 94.5295 71.177C94.6118 71.6827 94.7882 72.0825 95.0586 72.3764C95.3409 72.6704 95.7583 72.8174 96.311 72.8174C96.8754 72.8174 97.2929 72.6704 97.5633 72.3764C97.8338 72.0825 98.0102 71.6827 98.0925 71.177C98.1748 70.6714 98.216 70.1128 98.216 69.5013V59.9411H100.103V69.4131C100.103 70.4127 100.003 71.2887 99.8035 72.0413C99.6036 72.7821 99.2273 73.3583 98.6746 73.7699C98.1337 74.1815 97.3458 74.3873 96.311 74.3873ZM102.202 74.2285V59.9411H103.56L107.617 69.4308V59.9411H109.275V74.2285H108.005L103.895 64.4743V74.2285H102.202ZM111.627 74.2285V59.9411H113.584V74.2285H111.627ZM96.2052 100.387C95.1939 100.387 94.406 100.176 93.8416 99.7523C93.2889 99.3289 92.9008 98.7586 92.6774 98.0413C92.4657 97.324 92.3599 96.5244 92.3599 95.6424V90.5977C92.3599 89.6335 92.4657 88.7927 92.6774 88.0754C92.9008 87.3581 93.2889 86.8054 93.8416 86.4174C94.406 86.0175 95.1939 85.8176 96.2052 85.8176C97.0989 85.8176 97.8044 85.9823 98.3218 86.3115C98.851 86.6408 99.2273 87.1111 99.4507 87.7226C99.6859 88.3341 99.8035 89.0691 99.8035 89.9275V91.0564H97.9161V90.0509C97.9161 89.5218 97.8867 89.0573 97.8279 88.6575C97.7809 88.2459 97.6398 87.9284 97.4046 87.705C97.1694 87.4816 96.7755 87.3698 96.2228 87.3698C95.6584 87.3698 95.2468 87.4933 94.9881 87.7403C94.7294 87.9754 94.5589 88.3165 94.4766 88.7633C94.406 89.1984 94.3707 89.7099 94.3707 90.2979V95.9599C94.3707 96.6772 94.4295 97.2476 94.5471 97.6709C94.6647 98.0825 94.8587 98.3764 95.1292 98.5528C95.3997 98.7292 95.7642 98.8174 96.2228 98.8174C96.7637 98.8174 97.1518 98.6998 97.387 98.4646C97.6221 98.2177 97.7691 97.8826 97.8279 97.4592C97.8867 97.0359 97.9161 96.542 97.9161 95.9776V94.9192H99.8035V95.9776C99.8035 96.8478 99.6976 97.618 99.486 98.2883C99.2743 98.9468 98.9098 99.4642 98.3924 99.8405C97.875 100.205 97.1459 100.387 96.2052 100.387ZM100.926 100.229L103.96 85.9411H105.883L108.934 100.229H107.047L106.394 96.6302H103.484L102.796 100.229H100.926ZM103.748 95.2015H106.13L104.93 88.7633L103.748 95.2015ZM113.947 100.387C112.936 100.387 112.148 100.176 111.584 99.7523C111.031 99.3289 110.643 98.7586 110.42 98.0413C110.208 97.324 110.102 96.5244 110.102 95.6424V90.5977C110.102 89.6335 110.208 88.7927 110.42 88.0754C110.643 87.3581 111.031 86.8054 111.584 86.4174C112.148 86.0175 112.936 85.8176 113.947 85.8176C114.841 85.8176 115.547 85.9823 116.064 86.3115C116.593 86.6408 116.969 87.1111 117.193 87.7226C117.428 88.3341 117.546 89.0691 117.546 89.9275V91.0564H115.658V90.0509C115.658 89.5218 115.629 89.0573 115.57 88.6575C115.523 88.2459 115.382 87.9284 115.147 87.705C114.912 87.4816 114.518 87.3698 113.965 87.3698C113.4 87.3698 112.989 87.4933 112.73 87.7403C112.472 87.9754 112.301 88.3165 112.219 88.7633C112.148 89.1984 112.113 89.7099 112.113 90.2979V95.9599C112.113 96.6772 112.172 97.2476 112.289 97.6709C112.407 98.0825 112.601 98.3764 112.871 98.5528C113.142 98.7292 113.506 98.8174 113.965 98.8174C114.506 98.8174 114.894 98.6998 115.129 98.4646C115.364 98.2177 115.511 97.8826 115.57 97.4592C115.629 97.0359 115.658 96.542 115.658 95.9776V94.9192H117.546V95.9776C117.546 96.8478 117.44 97.618 117.228 98.2883C117.016 98.9468 116.652 99.4642 116.134 99.8405C115.617 100.205 114.888 100.387 113.947 100.387ZM114.035 104.374C113.847 104.374 113.653 104.356 113.453 104.321C113.253 104.285 113.054 104.244 112.854 104.197V103.245C113.007 103.292 113.159 103.321 113.312 103.333C113.465 103.356 113.612 103.368 113.753 103.368C114.059 103.368 114.312 103.315 114.512 103.209C114.723 103.104 114.829 102.927 114.829 102.68C114.829 102.469 114.77 102.298 114.653 102.169C114.535 102.051 114.365 101.951 114.141 101.869C113.918 101.798 113.647 101.74 113.33 101.693V100.229H114.282V101.216C114.87 101.216 115.341 101.352 115.694 101.622C116.058 101.892 116.24 102.263 116.24 102.733C116.24 103.11 116.14 103.415 115.94 103.65C115.752 103.897 115.488 104.08 115.147 104.197C114.817 104.315 114.447 104.374 114.035 104.374ZM96.2757 126.387C95.3115 126.387 94.5412 126.199 93.965 125.823C93.3888 125.447 92.9773 124.911 92.7303 124.218C92.4834 123.512 92.3599 122.689 92.3599 121.748V116.333C92.3599 115.392 92.4834 114.587 92.7303 113.917C92.989 113.235 93.4006 112.717 93.965 112.364C94.5412 112 95.3115 111.818 96.2757 111.818C97.24 111.818 98.0043 112 98.5688 112.364C99.1332 112.729 99.5389 113.246 99.7858 113.917C100.045 114.587 100.174 115.392 100.174 116.333V121.766C100.174 122.695 100.045 123.506 99.7858 124.2C99.5389 124.894 99.1332 125.435 98.5688 125.823C98.0043 126.199 97.24 126.387 96.2757 126.387ZM96.2757 124.817C96.8049 124.817 97.2047 124.712 97.4752 124.5C97.7456 124.276 97.9279 123.971 98.022 123.583C98.116 123.183 98.1631 122.718 98.1631 122.189V115.927C98.1631 115.398 98.116 114.946 98.022 114.569C97.9279 114.181 97.7456 113.887 97.4752 113.687C97.2047 113.476 96.8049 113.37 96.2757 113.37C95.7466 113.37 95.3409 113.476 95.0586 113.687C94.7882 113.887 94.6059 114.181 94.5118 114.569C94.4178 114.946 94.3707 115.398 94.3707 115.927V122.189C94.3707 122.718 94.4178 123.183 94.5118 123.583C94.6059 123.971 94.7882 124.276 95.0586 124.5C95.3409 124.712 95.7466 124.817 96.2757 124.817ZM97.6163 109.789C97.287 109.789 96.993 109.719 96.7343 109.578C96.4874 109.425 96.2522 109.278 96.0288 109.137C95.8053 108.995 95.5643 108.925 95.3056 108.925C95.1057 108.925 94.9528 108.978 94.847 109.084C94.7529 109.189 94.7059 109.378 94.7059 109.648H93.6299C93.6299 109.295 93.6711 108.978 93.7534 108.696C93.8474 108.402 93.9944 108.172 94.1943 108.008C94.406 107.831 94.6882 107.743 95.041 107.743C95.335 107.743 95.5996 107.814 95.8347 107.955C96.0817 108.096 96.3228 108.237 96.5579 108.378C96.7931 108.519 97.0342 108.59 97.2811 108.59C97.481 108.59 97.628 108.537 97.7221 108.431C97.8162 108.325 97.8632 108.131 97.8632 107.849H98.9215C98.9215 108.202 98.8863 108.525 98.8157 108.819C98.7451 109.113 98.6158 109.348 98.4276 109.525C98.2395 109.701 97.969 109.789 97.6163 109.789ZM102.133 126.229V111.941H107.671V113.423H104.126V118.15H107.001V119.561H104.126V124.8H107.707V126.229H102.133ZM112.685 126.387C111.862 126.387 111.174 126.211 110.621 125.858C110.08 125.505 109.669 125.017 109.386 124.394C109.104 123.771 108.94 123.048 108.893 122.225L110.656 121.748C110.692 122.254 110.768 122.742 110.886 123.212C111.015 123.683 111.221 124.071 111.503 124.376C111.785 124.67 112.179 124.817 112.685 124.817C113.202 124.817 113.59 124.676 113.849 124.394C114.119 124.1 114.255 123.683 114.255 123.142C114.255 122.495 114.108 121.978 113.814 121.59C113.52 121.19 113.149 120.79 112.703 120.39L110.304 118.273C109.833 117.862 109.486 117.415 109.263 116.933C109.04 116.439 108.928 115.833 108.928 115.116C108.928 114.07 109.228 113.258 109.827 112.682C110.427 112.106 111.244 111.818 112.279 111.818C112.844 111.818 113.338 111.894 113.761 112.047C114.196 112.188 114.555 112.411 114.837 112.717C115.131 113.023 115.36 113.411 115.525 113.881C115.701 114.34 115.819 114.881 115.877 115.504L114.184 115.963C114.149 115.492 114.078 115.063 113.973 114.675C113.867 114.275 113.679 113.958 113.408 113.723C113.149 113.476 112.773 113.352 112.279 113.352C111.785 113.352 111.397 113.487 111.115 113.758C110.845 114.017 110.709 114.405 110.709 114.922C110.709 115.357 110.78 115.716 110.921 115.998C111.074 116.28 111.315 116.568 111.644 116.862L114.061 118.979C114.602 119.449 115.078 120.014 115.489 120.672C115.901 121.319 116.107 122.089 116.107 122.983C116.107 123.689 115.96 124.3 115.666 124.817C115.372 125.323 114.966 125.711 114.449 125.982C113.943 126.252 113.355 126.387 112.685 126.387Z" fill="white"/>
</g>
</g>
</g>
<defs>
<clipPath id="clip0_1_2685">
<rect width="1140" height="4386" fill="white" transform="translate(-717 -4243)"/>
</clipPath>
</defs>
</svg>
